<?xml version="1.0" standalone="no"?>
<!DOCTYPE svg PUBLIC "-//W3C//DTD SVG 1.1//EN" "http://www.w3.org/Graphics/SVG/1.1/DTD/svg11.dtd" >
<svg>
<metadata>
Created by FontForge 20090914 at Fri Feb 24 08:38:24 2012
 By root
Copyright 1994 Alphabets, Inc. Manfred Klein (1996)
</metadata>
<defs>
<font id="FranklySpokenTwo" horiz-adv-x="627" >
  <font-face 
    font-family="FranklySpokenTwo"
    font-weight="500"
    font-stretch="normal"
    units-per-em="1000"
    panose-1="2 0 6 3 9 0 0 2 0 4"
    ascent="800"
    descent="-200"
    x-height="896"
    cap-height="897"
    bbox="-87 -350 1000 1270"
    underline-thickness="50"
    underline-position="75"
    unicode-range="U+0005-U+E002"
  />
<missing-glyph 
d="M507 242l-44 45q20 28 29 61.5t9 67.5q0 71 -38 132l44 43l-77 81l-44 -45q-62 40 -134 40q-34 0 -66.5 -11t-61.5 -28l-45 44l-79 -81l44 -43q-19 -30 -28 -64t-9 -69t10 -65.5t27 -61.5l-44 -46l79 -79l44 45q62 -40 134 -40q35 0 67.5 11t61.5 29l44 -45zM377 416
q0 -25 -10 -47.5t-26.5 -39.5t-39 -27t-47.5 -10t-47.5 10t-39 27t-26.5 39.5t-10 47.5t9.5 48t26.5 39.5t39 26.5t48 10q25 0 47.5 -10t39.5 -26.5t26.5 -39.5t9.5 -48z" />
    <glyph glyph-name=".notdef" 
d="M507 242l-44 45q20 28 29 61.5t9 67.5q0 71 -38 132l44 43l-77 81l-44 -45q-62 40 -134 40q-34 0 -66.5 -11t-61.5 -28l-45 44l-79 -81l44 -43q-19 -30 -28 -64t-9 -69t10 -65.5t27 -61.5l-44 -46l79 -79l44 45q62 -40 134 -40q35 0 67.5 11t61.5 29l44 -45zM377 416
q0 -25 -10 -47.5t-26.5 -39.5t-39 -27t-47.5 -10t-47.5 10t-39 27t-26.5 39.5t-10 47.5t9.5 48t26.5 39.5t39 26.5t48 10q25 0 47.5 -10t39.5 -26.5t26.5 -39.5t9.5 -48z" />
    <glyph glyph-name="breve" horiz-adv-x="504" 
d="M452 1022h-96q-16 -24 -41 -37t-54 -13q-59 0 -98 50h-94q7 -36 24 -65.5t42 -50.5t56.5 -33t68.5 -12q76 0 126 44.5t66 116.5z" />
    <glyph glyph-name="dotaccent" horiz-adv-x="197" 
d="M226 934q0 16 -7.5 31.5t-19.5 28t-27.5 20t-31.5 7.5t-31.5 -7.5t-27.5 -20t-19.5 -28t-7.5 -31.5q0 -15 7.5 -30.5t19.5 -28t27.5 -20t30.5 -7.5q16 0 31.5 7.5t28 19.5t20 27.5t7.5 31.5z" />
    <glyph glyph-name="ring" horiz-adv-x="422" 
d="M305 897q0 22 -8.5 45t-25.5 42.5t-42.5 32t-58.5 12.5q-34 0 -59.5 -12.5t-42.5 -32t-25.5 -42.5t-8.5 -45q0 -21 8.5 -44.5t26 -42.5t43 -31.5t58.5 -12.5t58 12.5t42.5 31.5t26 42.5t8.5 44.5zM216 898q0 -15 -11 -31t-35 -16q-23 0 -35 15t-12 30t11 31.5t36 16.5
q23 0 34.5 -15.5t11.5 -30.5z" />
    <glyph glyph-name="hungarumlaut" unicode="&#xa;" horiz-adv-x="629" 
d="M535 907l-66 106l-184 -225l48 -73zM316 907l-66 106l-184 -225l48 -73z" />
    <glyph glyph-name="ogonek" horiz-adv-x="237" 
d="M271 -231l-14 56q-16 -8 -33 -13.5t-35 -5.5q-20 0 -31.5 12t-11.5 33q0 25 15 42t32 31h-70q-20 -18 -37 -41t-17 -52q0 -46 26 -69.5t71 -23.5q28 0 55 7.5t50 23.5z" />
    <glyph glyph-name="caron" horiz-adv-x="480" 
d="M475 1018h-124l-81 -76l-82 76h-123l205 -213z" />
    <glyph glyph-name="dotlessi" unicode="&#xd;" horiz-adv-x="328" 
d="M245 -2v899h-200v-899h200z" />
    <glyph glyph-name="fraction" 
d="M526 897h-106l-420 -899h109z" />
    <glyph glyph-name="fi" horiz-adv-x="606" 
d="M530 721v177h-198v-177h198zM530 0v668h-198v-668h198zM319 481v167h-69q0 18 1.5 33.5t7.5 26.5t18.5 17.5t34.5 6.5l7 -1v171l-39 2t-39 1q-59 0 -95.5 -21.5t-56 -57.5t-26 -82.5t-6.5 -96.5l-57 1v-167h57v-481h198v481h64z" />
    <glyph glyph-name="fl" 
d="M529 -1v898h-198v-898h198zM319 481v167h-69q0 18 1.5 33.5t7.5 26.5t18.5 17.5t34.5 6.5l7 -1v171l-39 2t-39 1q-59 0 -95.5 -21.5t-56 -57.5t-26 -82.5t-6.5 -96.5l-57 1v-167h57v-482h198v482h64z" />
    <glyph glyph-name="Lslash" horiz-adv-x="630" 
d="M559 0v218h-271v292l80 103v157l-80 -99v226h-212v-435l-51 -64v-156l51 61v-303h483z" />
    <glyph glyph-name="lslash" horiz-adv-x="412" 
d="M322 551v156l-73 -79v269h-198v-421l-73 -78v-156l73 78v-320h198v471z" />
    <glyph glyph-name="Zcaron" horiz-adv-x="653" 
d="M567 0v213h-304l295 510v174h-538v-207h281l-301 -518v-172h567zM512 1116h-124l-81 -76l-82 76h-123l205 -213z" />
    <glyph glyph-name="zcaron" horiz-adv-x="539" 
d="M450 -2v202h-227l219 490v206h-423v-206h196q-1 -1 -12 -27.5l-30.5 -72l-42.5 -98l-46 -106l-42 -97.5l-30.5 -71l-11.5 -27v-193h450zM456 1112h-124l-81 -76l-82 76h-123l205 -213z" />
    <glyph glyph-name="space" unicode=" " horiz-adv-x="315" 
 />
    <glyph glyph-name="exclam" unicode="!" horiz-adv-x="329" 
d="M231 897h-238l54 -626h127zM208 -2v210h-191v-210h191z" />
    <glyph glyph-name="quotedbl" unicode="&#x22;" horiz-adv-x="437" 
d="M339 707v192h-155v-192q0 -1 3 -14t8 -33l11 -43l11 -43.5l9 -36t5 -18.5h60q1 3 5 18.5l9.5 36t11 44l10.5 43l8.5 32.5t3.5 14zM176 707v192h-155v-192q0 -1 3 -14t8 -33l11 -43l11 -43.5l9 -36t5 -18.5h61q1 3 5 18.5l9 36l11 43.5l11 43t8 33t3 14z" />
    <glyph glyph-name="numbersign" unicode="#" horiz-adv-x="682" 
d="M603 516v141h-91l45 254h-117l-43 -254h-110l44 254h-119l-43 -254h-127v-141h106l-28 -160h-123v-139h98l-35 -218h117l35 218h112l-36 -218h116l36 218h131v139h-104l26 160h110zM377 513l-28 -157h-113l27 157h114z" />
    <glyph glyph-name="dollar" unicode="$" horiz-adv-x="621" 
d="M547 263q0 81 -25 130.5t-62 78t-80.5 42.5t-80.5 24.5t-62 24t-25 40.5q0 29 18 41t44 12q42 0 65 -22.5t34 -60.5l157 64q-23 83 -73 136.5t-137 67.5l-2 -1v109h-96v-111q-49 -8 -86 -33t-61.5 -62t-37 -81.5t-12.5 -90.5q0 -59 14 -100.5t37.5 -69.5t53 -45.5t60 -29
t60 -19.5t53 -18t37.5 -23.5t14 -35.5q0 -15 -6.5 -25t-17 -16t-23.5 -8.5t-26 -2.5q-49 0 -75 28t-36 74l-177 -43q8 -46 26.5 -88.5t47.5 -76t68 -56t88 -28.5l-1 -118h96v114l2 3q55 8 97 32t71 60t44 83t15 101z" />
    <glyph glyph-name="percent" unicode="%" horiz-adv-x="619" 
d="M279 663q0 33 -5.5 74t-21 76.5t-43 59.5t-70.5 24t-70 -24t-42.5 -60t-21 -76.5t-5.5 -73.5q0 -32 6 -72t22 -75t42.5 -58.5t68.5 -23.5t69 23.5t43 58.5t22 74.5t6 72.5zM523 897h-93l-419 -899h95zM537 226q0 33 -5.5 74t-21 77t-43 60t-70.5 24t-70 -24.5t-42.5 -60
t-21 -76.5t-5.5 -74q0 -32 6 -72t22 -74.5t42.5 -58t68.5 -23.5t69 23.5t43 58t22 74t6 72.5zM175 642q0 -9 -0.5 -27.5t-4 -36.5t-11 -31.5t-21.5 -13.5q-12 0 -18.5 13.5t-10 31.5t-4 35.5t-0.5 25.5v49q0 9 0.5 27.5t4 37t10.5 33t20 14.5t20 -14.5t10.5 -34t4 -38
t0.5 -27.5v-44zM434 205q0 -9 -0.5 -27t-4 -36.5t-11 -32t-21.5 -13.5q-12 0 -18.5 13.5t-10 31.5t-4 35.5t-0.5 25.5v50q0 9 0.5 27t4 37t10.5 33t20 14t20 -14.5t10.5 -34t4 -38t0.5 -27.5v-44z" />
    <glyph glyph-name="ampersand" unicode="&#x26;" horiz-adv-x="796" 
d="M714 4l-1 193l-29 -2t-30 0.5t-29 6.5t-24 16q48 59 73.5 131.5t38.5 146.5l-178 28q-6 -39 -16 -79.5t-36 -72.5l-70 96q33 15 57.5 38.5t40.5 52.5t24 62.5t8 68.5q0 49 -15 90.5t-43 71.5t-68 46.5t-90 16.5q-53 0 -94.5 -16.5t-71 -46.5t-45 -72.5t-15.5 -94.5
q0 -48 15.5 -91t40.5 -84q-81 -38 -120 -98.5t-39 -150.5q0 -62 19.5 -113.5t55.5 -88.5t87 -57t114 -20q26 0 53.5 5t53.5 14.5t49 24.5t40 36q35 -36 73 -54.5t89 -18.5q43 0 82 15zM383 682q0 -26 -12.5 -49.5t-37.5 -34.5q-18 19 -34 42.5t-16 50.5q0 21 11.5 42
t36.5 21q14 0 24 -7t16 -17.5t9 -23t3 -24.5zM364 216q-14 -18 -34 -29t-43 -11q-22 0 -38.5 9t-27.5 23.5t-16.5 33t-5.5 38.5q0 29 12.5 57t38.5 42z" />
    <glyph glyph-name="quotesingle" unicode="'" horiz-adv-x="277" 
d="M174 706v192h-155v-192q0 -1 3 -14t8 -33l11 -43l11 -43.5l9 -36t5 -18.5h61q1 3 5 18.5l9 36l11 43.5l11 43t8 33t3 14z" />
    <glyph glyph-name="parenleft" unicode="(" horiz-adv-x="349" 
d="M296 -3l-37 83.5l-31.5 68.5t-26 62t-19.5 64.5t-12 76t-4 95.5q0 72 8 128t24.5 107t40.5 102t57 113h-135l-69 -108.5t-50 -100t-30 -107.5t-10 -130q0 -55 4 -97.5t12 -78.5t21 -67t30.5 -63t40.5 -68l51 -80h135z" />
    <glyph glyph-name="parenright" unicode=")" horiz-adv-x="381" 
d="M332 443q0 82 -9 138.5t-28 104.5t-49.5 96.5l-72.5 114.5h-135q20 -47 37.5 -84l32 -69t25.5 -62t19 -64.5t12 -76.5t4 -96q0 -71 -8 -127t-24.5 -106.5t-40.5 -101.5t-57 -113h135l69 108.5t50 100t30 107t10 130.5z" />
    <glyph glyph-name="asterisk" unicode="*" horiz-adv-x="517" 
d="M449 704l-36 105l-149 -57l16 147h-121l13 -147l-141 57l-39 -105l148 -33l-101 -109l101 -68l78 126l80 -126l100 68l-100 109z" />
    <glyph glyph-name="plus" unicode="+" horiz-adv-x="584" 
d="M509 384v157h-181v237h-150v-237h-181v-157h181v-272h150v272h181z" />
    <glyph glyph-name="comma" unicode="," horiz-adv-x="314" 
d="M204 16v220h-189v-238h79l-79 -231h79z" />
    <glyph glyph-name="hyphen" unicode="-" horiz-adv-x="400" 
d="M325 293v157h-254v-157h254z" />
    <glyph glyph-name="period" unicode="." horiz-adv-x="327" 
d="M206 0v193h-191v-193h191z" />
    <glyph glyph-name="slash" unicode="/" horiz-adv-x="374" 
d="M294 897h-131l-188 -899h132z" />
    <glyph glyph-name="zero" unicode="0" horiz-adv-x="669" 
d="M618 439q0 43 -4.5 94.5t-15.5 102.5t-31 98.5t-50 84.5t-72.5 59t-99.5 22t-99.5 -22t-72.5 -59t-50 -84.5t-31 -98.5t-15.5 -102.5t-4.5 -94.5t5 -93t17 -100.5t32 -98t50 -84t72 -58.5t97 -22t97 22t72 58.5t50 84t32 98t17 101t5 92.5zM420 439v-36t-1 -53.5t-5 -61
t-12.5 -57t-22 -42t-34.5 -16.5t-34.5 16.5t-22 42t-12.5 57t-5 61t-1 53.5v36q0 17 0.5 44t3 57t7.5 61t13.5 55.5t22 40t32.5 15.5t32 -17.5t21 -45t11.5 -60t5 -63t1.5 -54.5v-33z" />
    <glyph glyph-name="one" unicode="1" horiz-adv-x="669" 
d="M519 0v896h-149q-28 -60 -82 -96t-116 -53v-202q42 7 80 24t71 43v-612h196z" />
    <glyph glyph-name="two" unicode="2" horiz-adv-x="669" 
d="M610 219h-267q17 11 40.5 33l48 46.5l47.5 48.5l39 40q48 48 68 107.5t20 125.5q0 59 -16 112t-47.5 92.5t-79 63t-110.5 23.5q-66 0 -114.5 -27.5t-82 -71.5t-52 -100t-24.5 -114l173 -44q2 16 8 42t16.5 51t25.5 43t35 18q18 0 31 -9t21 -22.5t11.5 -30.5t3.5 -32
q0 -55 -27 -99.5t-65 -81.5l-233 -228v-205h511z" />
    <glyph glyph-name="three" unicode="3" horiz-adv-x="669" 
d="M627 256q0 35 -6.5 67t-20.5 59.5t-38 49t-58 35.5q28 12 47.5 33.5t31.5 47.5t17.5 55.5t5.5 57.5q0 55 -17.5 101t-50 79t-78 51t-100.5 18q-59 0 -105.5 -20.5t-80 -56t-55.5 -83.5t-31 -102l166 -35q2 17 7.5 35.5t16 33.5t25.5 24.5t35 9.5q36 0 55 -25.5t19 -58.5
q0 -34 -15 -54t-38 -30t-51 -12.5t-54 -2.5v-150h70q21 0 39.5 -9.5t33 -25.5t23 -35.5t8.5 -39.5q0 -39 -21.5 -66.5t-63.5 -27.5q-25 0 -43 11t-30 29t-19 40t-9 43l-179 -30q11 -60 33.5 -112.5t58 -91.5t85.5 -61t116 -22q63 0 113 18.5t85 53.5t54 85t19 114z" />
    <glyph glyph-name="four" unicode="4" horiz-adv-x="669" 
d="M642 390h-124v507h-211l-258 -507v-195h280v-195h189v195h97zM329 390h-130l130 270v-270z" />
    <glyph glyph-name="five" unicode="5" horiz-adv-x="669" 
d="M622 302q0 49 -10.5 101t-36.5 94.5t-69 69.5t-108 27q-70 0 -123 -47l9 143h287l18 206h-458l-30 -517l158 -29q11 25 31.5 41t48.5 16q22 0 38.5 -9.5t27 -25.5t15.5 -35.5t5 -39.5q0 -18 -5 -37t-15 -35t-25.5 -26t-36.5 -10q-44 0 -68.5 30t-29.5 70l-177 -29
q7 -57 29 -107.5t57.5 -88t84 -59t109.5 -21.5q67 0 118 26.5t85.5 71t52.5 101.5t18 119z" />
    <glyph glyph-name="six" unicode="6" horiz-adv-x="669" 
d="M619 292q0 48 -11.5 97.5t-36.5 90t-65 66t-96 25.5q-47 0 -82 -19t-56 -63q0 21 2 60t10 78t25.5 67.5t48.5 28.5q21 0 34 -11t20.5 -27t10 -35t3.5 -35l175 27q-5 52 -22.5 100.5t-48 86t-74 59.5t-101.5 22q-59 0 -102.5 -23.5t-75 -62.5t-52 -89.5t-32.5 -104
t-17 -107t-5 -97.5q0 -45 5.5 -95t18 -99t34 -94t53 -79t74.5 -54t100 -20q63 0 112 26t82.5 69t51 98t17.5 114zM426 273q0 -16 -4 -34.5t-13 -34.5t-23 -26.5t-34 -10.5q-21 0 -36 10.5t-24 26t-13.5 34.5t-4.5 37q0 17 4.5 36.5t14.5 35.5t24.5 26.5t35.5 10.5
q20 0 34 -11.5t22.5 -28t12.5 -36t4 -35.5z" />
    <glyph glyph-name="seven" unicode="7" horiz-adv-x="669" 
d="M599 729v168h-493l-15 -226h318q-102 -148 -159.5 -319.5t-57.5 -351.5h227q0 96 9.5 191t30.5 187.5t55.5 180.5t84.5 170z" />
    <glyph glyph-name="eight" unicode="8" horiz-adv-x="669" 
d="M625 268q0 71 -26 124.5t-85 94.5q23 19 40 39t27.5 42t15.5 47t5 56q0 55 -19 99.5t-52.5 75.5t-79.5 47.5t-100 16.5q-62 0 -110.5 -20.5t-83 -57.5t-52.5 -87.5t-18 -110.5q0 -57 19.5 -110t66.5 -88q-57 -31 -82.5 -85t-25.5 -117q0 -62 20 -108.5t56 -77.5t85.5 -47
t108.5 -16q66 0 120 19t91.5 55t58 88.5t20.5 120.5zM428 639q0 -25 -10.5 -48t-32.5 -37l-36.5 19t-36.5 23t-28.5 29.5t-11.5 39.5q0 31 18 49t49 18q42 0 65.5 -26t23.5 -67zM428 227q0 -36 -25 -52.5t-57 -16.5q-45 0 -73.5 25t-28.5 72q0 28 13 52t35 41l42.5 -19.5
t44.5 -24.5t35 -32.5t14 -44.5z" />
    <glyph glyph-name="nine" unicode="9" horiz-adv-x="669" 
d="M617 466q0 45 -4.5 96t-16.5 100t-32 94t-51 79t-74.5 54.5t-101.5 20.5q-66 0 -115.5 -25.5t-82.5 -68t-49.5 -98t-16.5 -116.5q0 -50 12.5 -100.5t38.5 -92t67.5 -67.5t98.5 -26q46 0 78 23.5t52 63.5q3 -21 3 -42q0 -22 -3.5 -53t-13.5 -59.5t-27.5 -49t-47.5 -20.5
q-16 0 -27.5 8t-19 20t-12 26.5t-5.5 27.5l-176 -37q6 -49 23.5 -92.5t46.5 -76t70 -51.5t94 -19q60 0 105 22.5t77.5 60t53.5 87t33.5 103t17.5 107.5t5 101zM411 615q0 -18 -4 -37.5t-13.5 -35.5t-24.5 -26t-37 -10q-20 0 -33.5 11t-21 27.5t-10.5 35.5t-3 35
q0 17 3.5 36.5t11.5 36t22.5 27.5t35.5 11t35 -11t23 -27.5t12.5 -36t3.5 -36.5z" />
    <glyph glyph-name="colon" unicode=":" horiz-adv-x="307" 
d="M207 457v210h-191v-210h191zM207 -1v210h-191v-210h191z" />
    <glyph glyph-name="semicolon" unicode=";" horiz-adv-x="307" 
d="M207 457v210h-191v-210h191zM206 16v190h-189v-208h79l-79 -231h79z" />
    <glyph glyph-name="less" unicode="&#x3c;" horiz-adv-x="601" 
d="M508 -23v218l-298 140l298 147v219l-509 -259v-209z" />
    <glyph glyph-name="equal" unicode="=" horiz-adv-x="636" 
d="M556 503v166h-512v-166h512zM556 186v166h-512v-166h512z" />
    <glyph glyph-name="greater" unicode="&#x3e;" horiz-adv-x="593" 
d="M524 233v209l-509 259v-219l298 -147l-298 -140v-218z" />
    <glyph glyph-name="question" unicode="?" horiz-adv-x="600" 
d="M525 628q0 57 -16.5 108.5t-48 90.5t-78.5 61.5t-108 22.5q-69 0 -117.5 -25.5t-81 -68t-50.5 -98.5t-26 -116l175 -27q1 19 4 45.5t12 49.5t25.5 39.5t42.5 16.5q16 0 27 -8t17.5 -20.5t9.5 -27.5t3 -28q0 -27 -6 -48t-16 -38.5t-24 -34.5l-30 -36q-21 -25 -32 -51.5
t-16 -54t-6 -57t-1 -60.5v-18h167q2 43 15.5 74t33 56t41.5 48t40.5 51t31 64.5t12.5 89.5zM370 -1v200h-191v-200h191z" />
    <glyph glyph-name="at" unicode="@" horiz-adv-x="709" 
d="M638 651q0 60 -26.5 109t-69.5 84t-97.5 54.5t-109.5 19.5q-70 0 -131 -25.5t-106 -69.5t-71 -104.5t-26 -130.5q0 -71 26.5 -132t72.5 -105t107.5 -69t132.5 -25q30 0 62 7.5t62.5 21t57 33t46.5 42.5l-54 34q-36 -28 -79.5 -39t-88.5 -11q-57 0 -102.5 16.5t-78 48
t-50 77t-17.5 102.5q0 54 16 98.5t46 77t73.5 50t98.5 17.5q50 0 91.5 -13t71 -39t46 -65.5t16.5 -92.5q0 -15 -3.5 -41.5t-12.5 -53t-23.5 -45.5t-36.5 -19q-13 0 -13 12q0 18 6 54.5t13.5 77.5l15 79.5t11.5 61.5h-91l-9 -37q-16 25 -43.5 34.5t-55.5 9.5
q-41 0 -74.5 -16.5t-56.5 -45t-35.5 -64.5t-12.5 -75q0 -30 11.5 -57.5t31 -48.5t46.5 -34t57 -13q25 0 47.5 12t39.5 29q-2 -23 14 -34t36 -11q18 0 39.5 7t42 17.5t38.5 23.5t31 26q37 37 52.5 83t15.5 97zM385 588q0 -16 -5.5 -31t-15 -26.5t-23.5 -18.5t-31 -7
q-26 0 -40.5 19.5t-14.5 45.5q0 30 19 55.5t52 25.5q27 0 43 -18.5t16 -44.5z" />
    <glyph glyph-name="A" unicode="A" horiz-adv-x="742" 
d="M704 0l-215 897h-259l-213 -897h208l42 195h183l39 -195h215zM414 372h-112l56 260z" />
    <glyph glyph-name="B" unicode="B" horiz-adv-x="693" 
d="M615 245q0 37 -9.5 73t-27 65t-44 50t-60.5 30q30 9 52.5 32.5t37.5 53t22.5 61t7.5 56.5q0 51 -18 93t-50 73t-76 48t-96 17h-335v-897h314q69 0 121.5 21.5t88.5 56t54 78.5t18 89zM395 630q0 -29 -21.5 -50.5t-49.5 -21.5h-99v152h84q14 0 29.5 -6t28 -16.5t20.5 -25
t8 -32.5zM407 285q0 -17 -6.5 -32t-17 -26t-24.5 -18t-29 -7h-105v156h88q17 0 34 -4t30.5 -13t21.5 -23t8 -33z" />
    <glyph glyph-name="C" unicode="C" horiz-adv-x="663" 
d="M593 326l-192 15q-1 -21 -5 -47t-14.5 -48.5t-28.5 -37.5t-45 -15q-37 0 -57 27t-29.5 65t-11 77.5t-1.5 65.5q0 17 0.5 44t3 58t8 63t16.5 57.5t27.5 41.5t41.5 16q30 0 48 -18.5t27.5 -45.5t12.5 -56.5t3 -51.5l196 14q-4 66 -21 131t-50.5 116.5t-87 83.5t-130.5 32
q-62 0 -109 -21.5t-81.5 -58t-58 -84.5t-37 -101t-19.5 -108t-6 -104q0 -74 15.5 -154t51.5 -146t96.5 -108.5t150.5 -42.5q70 0 122.5 30t87.5 78.5t53.5 109.5t22.5 123z" />
    <glyph glyph-name="D" unicode="D" horiz-adv-x="710" 
d="M625 446q0 86 -18.5 167t-60.5 144t-109.5 101.5t-165.5 38.5h-252v-897h267q92 0 156.5 40t105 103.5t59 143t18.5 159.5zM409 451q0 -27 -5.5 -68t-19 -79t-37.5 -65t-61 -27h-61v479h39q48 0 76.5 -23t44 -58.5t20 -77.5t4.5 -81z" />
    <glyph glyph-name="E" unicode="E" 
d="M531 0v213h-306v155h290v181h-290v141h249v207h-455v-897h512z" />
    <glyph glyph-name="F" unicode="F" horiz-adv-x="582" 
d="M515 690v207h-496v-897h205v368h252v181h-252v141h291z" />
    <glyph glyph-name="G" unicode="G" horiz-adv-x="714" 
d="M623 -2v503h-269v-149h73q0 -21 -5.5 -48t-17.5 -51t-29.5 -40t-41.5 -16q-41 0 -63.5 29t-33 69t-13 83t-2.5 71q0 17 0.5 43.5t3.5 56t9.5 59t17.5 53t28.5 38t43.5 14.5q27 0 44 -14.5t27.5 -36.5t16 -46.5t7.5 -45.5l204 28q-9 62 -30 119t-56 100.5t-86.5 69
t-121.5 25.5q-63 0 -112 -21t-86 -57t-62 -84t-40.5 -101t-22.5 -108.5t-7 -107.5q0 -48 6.5 -99.5t21.5 -101t38.5 -94.5t57.5 -79t79.5 -54t103.5 -20q59 0 107.5 28t77.5 79l29 -94h103z" />
    <glyph glyph-name="H" unicode="H" horiz-adv-x="699" 
d="M597 0v897h-205v-339h-168v339h-204v-897h204v368h168v-368h205z" />
    <glyph glyph-name="I" unicode="I" horiz-adv-x="364" 
d="M265 0v897h-206v-897h206z" />
    <glyph glyph-name="J" unicode="J" horiz-adv-x="493" 
d="M386 319v578h-204v-551q0 -24 -1.5 -49t-9 -46t-25 -34.5t-48.5 -13.5q-22 0 -42 4.5t-40 12.5v-215q33 -12 68.5 -16.5t71.5 -4.5q79 0 124.5 28.5t69 76t30 107.5t6.5 123z" />
    <glyph glyph-name="K" unicode="K" horiz-adv-x="721" 
d="M691 0l-222 558l180 339h-202l-170 -319v319h-205v-897h205v331l73 -2l136 -329h205z" />
    <glyph glyph-name="L" unicode="L" horiz-adv-x="558" 
d="M492 203h-268v694h-205v-897h473v203z" />
    <glyph glyph-name="M" unicode="M" horiz-adv-x="914" 
d="M819 0v897h-254l-5.5 -21.5l-14.5 -57l-20.5 -80.5l-23.5 -91.5l-23.5 -91.5l-20.5 -80l-14.5 -56.5l-5.5 -21.5l-139 500h-279v-897h205v520l129 -520h147l4.5 22.5t12.5 59l18.5 83.5l21 96l21 95.5l18.5 83.5l13 59l5 22v-521h205z" />
    <glyph glyph-name="N" unicode="N" horiz-adv-x="707" 
d="M606 0v896h-206v-414l-176 414h-205v-896h205v433l13 -32l33 -80l43 -104.5l43 -104.5l33.5 -80l13.5 -32h203z" />
    <glyph glyph-name="O" unicode="O" horiz-adv-x="734" 
d="M713 445q0 51 -7 105.5t-23 106.5t-41 98.5t-61.5 81.5t-85 55.5t-110.5 20.5t-110.5 -20.5t-85 -55.5t-61.5 -81.5t-41 -98.5t-23 -106.5t-7 -105.5q0 -50 7.5 -103.5t24 -105t42 -97t62 -80t84.5 -54.5t108 -20t108 20t84.5 54.5t62 80t42 97t24 105t7.5 103.5z
M488 444q0 -17 -0.5 -42.5t-3.5 -54t-9.5 -56.5t-18 -50.5t-29 -36.5t-42.5 -14t-42.5 14t-29 36.5t-18 50.5t-9.5 56.5t-3.5 54t-0.5 42.5t1 43t4 55.5t9.5 59.5t18 54t28.5 39t42 15q24 0 41.5 -15t29 -39t18 -54t9.5 -59.5t4 -55.5t1 -43z" />
    <glyph glyph-name="P" unicode="P" horiz-adv-x="669" 
d="M601 613q0 75 -20.5 128.5t-59.5 88t-95 51t-128 16.5h-279v-897h205v305q84 0 153 12.5t119 47t77.5 94t27.5 154.5zM395 604q0 -23 -8.5 -44t-23.5 -37t-35 -26t-42 -10h-62v214h68q20 0 38.5 -6.5t33 -19.5t23 -31t8.5 -40z" />
    <glyph glyph-name="Q" unicode="Q" horiz-adv-x="734" 
d="M647 446q0 51 -7 105.5t-23 106.5t-41 98t-61.5 81t-85 55.5t-110.5 20.5t-110.5 -20.5t-85 -55.5t-61.5 -81.5t-41 -98.5t-23 -106.5t-7 -105.5q0 -50 7.5 -103.5t23.5 -105t42 -97t62 -80t84 -54.5t108 -20v-147h313v162h-218q66 23 111 72t72 111t39 131t12 132z
M422 444q0 -17 -0.5 -42.5t-3.5 -54t-9.5 -56.5t-18 -50.5t-29 -36.5t-42.5 -14t-42.5 14t-29 36.5t-18 50.5t-9.5 56.5t-3.5 54t-0.5 42.5t1 43t4 55.5t9.5 59.5t18 54t29 39t41.5 15t41.5 -15t29 -39t18 -54t9.5 -59.5t4 -55.5t1 -43z" />
    <glyph glyph-name="R" unicode="R" horiz-adv-x="676" 
d="M590 0l-138 383q69 41 102 103.5t33 141.5q0 126 -66 197.5t-195 71.5h-307v-897h206v341h37l100 -341h228zM368 620q0 -51 -28 -73.5t-73 -22.5h-42v182h50q45 0 69 -19t24 -67z" />
    <glyph glyph-name="S" unicode="S" horiz-adv-x="672" 
d="M599 288q0 65 -16 109t-42.5 73t-59.5 46.5t-67 29.5q-18 6 -49.5 14.5t-62 20.5t-53 29.5t-22.5 42.5q0 34 22 49.5t51 15.5q47 0 73.5 -25t40.5 -66l165 66q-27 98 -97 156t-173 58q-66 0 -119 -21t-89.5 -59t-56.5 -91.5t-20 -118.5q0 -56 18 -98.5t46.5 -73.5
t63 -51.5t67.5 -32.5q20 -8 50 -16t58 -20t48 -30t20 -45q0 -18 -8.5 -29.5t-21 -18.5t-28 -9.5t-28.5 -2.5q-55 0 -86 28.5t-43 79.5l-185 -43q12 -60 37 -109t63 -83.5t89 -53.5t114 -19q66 0 121.5 21.5t95.5 60.5t62 94t22 122z" />
    <glyph glyph-name="T" unicode="T" horiz-adv-x="585" 
d="M512 897h-492v-207h144v-690h204v690h144v207z" />
    <glyph glyph-name="U" unicode="U" horiz-adv-x="682" 
d="M582 320v577h-205v-576v-41t-6 -40.5t-21.5 -30.5t-45.5 -12t-46 10.5t-23.5 27.5t-8.5 39t-1 45v578l-205 -1v-592q0 -72 15 -131t48.5 -100.5t88 -64.5t132.5 -23q81 0 134.5 25.5t85.5 70.5t45 106.5t13 132.5z" />
    <glyph glyph-name="V" unicode="V" horiz-adv-x="725" 
d="M651 897h-221l-92 -524l-115 524h-221l221 -897h204z" />
    <glyph glyph-name="W" unicode="W" horiz-adv-x="964" 
d="M901 897h-195l-30 -210l-20 -136t-12.5 -78t-6.5 -36t-3 -10v0l-92 470h-165l-89 -474l-29.5 155l-27 137.5l-22.5 109.5t-14 72h-206l190 -897h177l5.5 27l14.5 70l20.5 96.5l22 105l20 96.5l15 71t5.5 27l95 -493h177z" />
    <glyph glyph-name="X" unicode="X" horiz-adv-x="734" 
d="M685 -2l-230 482l199 417h-189l-115 -259l-114 259h-233l212 -434l-221 -465h193l127 284l127 -284h244z" />
    <glyph glyph-name="Y" unicode="Y" horiz-adv-x="716" 
d="M650 897h-184l-121 -313l-126 313h-219l231 -519v-378h205v378z" />
    <glyph glyph-name="Z" unicode="Z" horiz-adv-x="653" 
d="M567 0v213h-304l295 510v174h-538v-207h281l-301 -518v-172h567z" />
    <glyph glyph-name="bracketleft" unicode="[" horiz-adv-x="351" 
d="M255 -2v108h-88v683h88v108h-237v-899h237z" />
    <glyph glyph-name="backslash" unicode="\" horiz-adv-x="337" 
d="M258 -2l-134 899h-132l134 -899h132z" />
    <glyph glyph-name="bracketright" unicode="]" horiz-adv-x="366" 
d="M254 -2v899h-237v-108h88v-683h-88v-108h237z" />
    <glyph glyph-name="asciicircum" unicode="^" horiz-adv-x="572" 
d="M475 805l-205 213l-205 -213h123l82 77l81 -77h124z" />
    <glyph glyph-name="underscore" unicode="_" horiz-adv-x="437" 
d="M500 -246v81h-500v-81h500z" />
    <glyph glyph-name="grave" unicode="`" horiz-adv-x="387" 
d="M263 889l-232 129l-34 -129l240 -89z" />
    <glyph glyph-name="a" unicode="a" horiz-adv-x="626" 
d="M540 -1q-6 22 -9.5 54.5t-5 68t-1.5 69.5v58v262q0 51 0.5 100.5t-4 95t-17.5 84t-40 66.5t-72 44t-113 16q-70 0 -116 -27.5t-76 -72.5t-47 -101.5t-27 -113.5l182 -22q1 13 7.5 43t16.5 60.5t23.5 53.5t30.5 23q13 0 23 -12t16.5 -30.5t10.5 -41.5t6.5 -44.5t3 -39.5
t0.5 -27q-74 -6 -136 -22t-106 -50t-68.5 -89.5t-24.5 -138.5q0 -44 6.5 -93.5t26 -91t54.5 -68.5t91 -27q31 0 58 12t49 31.5t37.5 45.5t23.5 54q0 -32 0.5 -64.5t5.5 -64.5h191zM332 444v-52q0 -12 -0.5 -34t-2.5 -48t-6.5 -52.5t-13 -48t-20.5 -35.5t-30 -14
q-16 0 -29.5 11.5t-23 27.5t-14.5 34t-5 31q0 31 11.5 62t31.5 55.5t46.5 41.5t55.5 21z" />
    <glyph glyph-name="b" unicode="b" horiz-adv-x="629" 
d="M549 444q0 30 -3 74t-11 93t-21.5 97.5t-35 87.5t-51 63t-69.5 24q-41 0 -77.5 -20t-56.5 -51v285h-204v-1097h114l14 44t13 48q26 -48 68.5 -78t99.5 -30q45 0 79 24.5t58.5 63.5t40.5 89t25.5 101t13 99t3.5 83zM351 435q0 -10 -1 -34.5t-3.5 -55.5t-7.5 -64.5t-13 -61
t-19 -45t-26 -17.5q-23 0 -34.5 11.5t-16.5 28t-5.5 35.5t-0.5 35v366q0 12 3 27t9.5 27.5t17 21t25.5 8.5q17 0 28.5 -17t19.5 -44t13 -60t7.5 -64.5t3 -57.5t0.5 -39z" />
    <glyph glyph-name="c" unicode="c" horiz-adv-x="671" 
d="M598 326l-192 30q-1 -20 -5 -48.5t-14.5 -54.5t-28.5 -44t-45 -18q-38 0 -58 28.5t-29 68.5t-10.5 81t-1.5 67q0 16 0.5 43t3 57.5t8.5 62t17 56.5t27.5 41t40.5 16q30 0 48 -19t27.5 -46t12.5 -56.5t3 -50.5l196 14q-4 66 -21 130.5t-50.5 115.5t-87 82.5t-130.5 31.5
q-62 0 -109 -21.5t-81.5 -58.5t-58 -85t-37 -101t-19.5 -108t-6 -104q0 -50 6.5 -102.5t21.5 -103t39 -95.5t59 -78.5t81.5 -53.5t106.5 -20q70 0 122.5 30.5t87.5 79t53.5 110t22.5 123.5z" />
    <glyph glyph-name="d" unicode="d" horiz-adv-x="629" 
d="M521 0v1097h-204v-282q-22 29 -53 48.5t-69 19.5q-43 0 -75 -24.5t-54.5 -63.5t-37 -88.5t-23 -99.5t-11.5 -96t-3 -79q0 -31 3 -76.5t11.5 -95t22.5 -99.5t36 -89.5t53 -64t72 -24.5q54 0 85.5 29t50.5 77h2v-89h194zM317 261q0 -12 -2.5 -30t-9 -34.5t-17.5 -28
t-27 -11.5q-17 0 -28 17t-18 43t-11 58t-6 62t-2 54v35v38q0 27 2 59.5t5.5 67.5t11 63.5t19 47t28.5 18.5q20 0 31 -11t16.5 -27t6.5 -34t1 -32v-355z" />
    <glyph glyph-name="e" unicode="e" horiz-adv-x="637" 
d="M553 323l-188 15l-5.5 -47t-12 -60t-22.5 -52t-38 -22q-16 0 -28 15t-20.5 39t-14 53t-8.5 56.5t-4.5 50t-1.5 33.5v16h342q0 43 -0.5 96.5t-7.5 108.5t-22 107t-44.5 92.5t-75 65t-113.5 24.5q-60 0 -105 -21t-77 -56.5t-53 -82.5t-33 -98t-16.5 -103t-4.5 -98
q0 -51 3.5 -105.5t14 -106.5t30 -99t51.5 -82.5t79 -56.5t112 -21q78 0 126 29.5t76 77.5t40.5 108.5t20.5 123.5zM352 558h-143q0 10 1 29t4.5 41.5t8.5 46.5t13 43t19 31.5t25 12.5q23 0 37 -26t22 -60t10.5 -68t2.5 -50z" />
    <glyph glyph-name="f" unicode="f" horiz-adv-x="501" 
d="M423 1096q-30 7 -64 12.5t-63 5.5q-77 0 -118 -29.5t-60.5 -77t-22.5 -106.5t-3 -117h-72v-161h72v-623h205v623h111v161h-113q-1 6 -0.5 12t0.5 12q0 12 1 34.5t6 44.5t15 38t29 16q8 0 17 0.5t18 -1.5z" />
    <glyph glyph-name="g" unicode="g" horiz-adv-x="648" 
d="M597 114q0 84 -27 127.5t-72 62.5t-104 22.5t-123 6.5q-8 0 -18 1t-18 4t-13.5 9.5t-5.5 17.5q0 8 3 21.5t8.5 27t12 23.5t14.5 10q56 0 108.5 10t93 36.5t64.5 71.5t24 115q0 20 -3.5 43.5t-10.5 46t-18 43t-25 35.5q5 11 13.5 16.5t18.5 7t21 1t21 -0.5q8 0 15.5 0.5
t15.5 -0.5v180l-14 1q-17 2 -32.5 -1t-31.5 -3q-31 0 -51.5 -14t-34 -35.5t-20 -48t-9.5 -51.5q-23 8 -47 10.5t-47 2.5q-51 0 -96.5 -14.5t-80 -43.5t-54.5 -72t-20 -99q0 -24 5 -51t15 -53t25.5 -47t37.5 -33q-22 -11 -40 -32t-31 -47.5t-20 -56.5t-7 -58
q0 -30 12.5 -60.5t34.5 -51.5q-40 -17 -60.5 -49t-20.5 -75q0 -58 27 -94.5t68.5 -57t91.5 -28t97 -7.5q57 0 112.5 10.5t99 37t70 71t26.5 112.5zM362 680q0 -14 -3 -32.5t-9.5 -36t-17.5 -29.5t-27 -12q-18 0 -30.5 11.5t-19.5 28.5t-10 36t-3 35q0 14 3 31.5t9.5 33.5
t18 26.5t28.5 10.5q18 0 30 -10.5t18.5 -26t9.5 -33.5t3 -33zM421 72q0 -20 -9 -30.5t-23 -15.5t-30.5 -6t-30.5 -1q-17 0 -42.5 1t-49.5 6.5t-41 18t-17 36.5q0 25 8.5 38t22.5 17.5t32 4.5h36t42.5 -1.5t47 -8t38.5 -20.5t16 -39z" />
    <glyph glyph-name="h" unicode="h" 
d="M535 0v635q0 42 -5.5 86t-23.5 79.5t-50.5 58t-86.5 22.5q-49 0 -84 -26t-60 -66v308h-205v-1097h205v600q0 14 2 31t8.5 31.5t18 24.5t29.5 10q17 0 26.5 -8t14.5 -20.5t6 -27t1 -27.5v-614h204z" />
    <glyph glyph-name="i" unicode="i" horiz-adv-x="328" 
d="M243 929v178h-198v-178h198zM243 0v877h-198v-877h198z" />
    <glyph glyph-name="j" unicode="j" horiz-adv-x="327" 
d="M217 929v178h-198v-178h198zM217 146v731h-198v-627q0 -33 9.5 -64.5t9.5 -64.5q0 -14 -4.5 -25t-20.5 -11h-32l-1 -185q13 -1 26 -0.5t26 0.5q56 0 91 16.5t55 46t28 70t10 88.5z" />
    <glyph glyph-name="k" unicode="k" horiz-adv-x="633" 
d="M578 0l-172 637l154 230h-202l-134 -217l1 447h-206v-1097h206v311l52 90l94 -401h207z" />
    <glyph glyph-name="l" unicode="l" horiz-adv-x="337" 
d="M224 0v1097h-205v-1097h205z" />
    <glyph glyph-name="m" unicode="m" horiz-adv-x="905" 
d="M808 0v678q0 41 -7 83t-25.5 75.5t-51 55t-83.5 21.5q-55 0 -86.5 -28.5t-54.5 -76.5q-20 57 -58.5 81t-90.5 24q-22 0 -43 -8.5t-40 -23t-33.5 -33.5t-22.5 -40v89h-192v-897h206v630q0 14 1 30.5t5.5 31t15 24.5t29.5 10q15 0 23 -10.5t11 -25.5t3.5 -31.5t0.5 -28.5
v-630h204v600q0 19 0.5 40.5t5 39.5t15.5 30t33 12q15 0 21.5 -14t8.5 -33t1 -38.5t-1 -30.5v-606h205z" />
    <glyph glyph-name="n" unicode="n" horiz-adv-x="631" 
d="M526 0v651q0 44 -5 90t-22.5 83.5t-51.5 61.5t-92 24q-45 0 -81 -28.5t-53 -78.5v94h-202v-897h206v603q0 18 -0.5 40t3.5 41t15.5 32t34.5 13q17 0 26 -10.5t13 -25.5t4.5 -31.5t0.5 -28.5v-633h204z" />
    <glyph glyph-name="o" unicode="o" horiz-adv-x="730" 
d="M651 445q0 51 -7 105.5t-23 106.5t-41 99t-61.5 82t-85 55.5t-110.5 20.5t-110.5 -20.5t-85 -55.5t-61.5 -82t-41 -99t-23 -106.5t-7 -105.5q0 -50 7.5 -103.5t24 -105t42 -97t62 -80t84.5 -54.5t108 -20t108 20t84.5 54.5t62 80t42 97t24 105t7.5 103.5zM434 444
q0 -18 -0.5 -45.5t-4 -57.5t-10.5 -60t-19 -54t-30.5 -39t-45.5 -15t-45.5 15t-31 39t-19 54t-10 60t-4 57.5t-0.5 45.5t1 46t4.5 60t10.5 64t19 58t30.5 42t44.5 16t44.5 -16t30.5 -42t19 -58t10.5 -64t4.5 -60t1 -46z" />
    <glyph glyph-name="p" unicode="p" horiz-adv-x="630" 
d="M549 432q0 29 -2 76.5t-8.5 101t-18 107.5t-31 97.5t-48 71t-68.5 27.5q-47 0 -88 -29t-61 -83v96h-205v-997h205v182q20 -38 53.5 -62t78.5 -24q40 0 70.5 24t51.5 62.5t35 86.5t22 96.5t11 92.5t3 74zM343 419v-36q0 -23 -1.5 -51.5t-5 -58.5t-10.5 -54.5t-18.5 -40.5
t-28.5 -16q-20 0 -30.5 12t-16 29t-6.5 35.5t-1 32.5v387q0 12 3 27.5t9.5 29t17 23t26.5 9.5t27 -21t18 -54t10.5 -72.5t5 -76t1.5 -65.5v-39z" />
    <glyph glyph-name="q" unicode="q" horiz-adv-x="630" 
d="M528 897h-115l-33 -91q-20 51 -62.5 79.5t-97.5 28.5q-46 0 -80.5 -23.5t-59.5 -62.5t-42 -87.5t-27 -99.5t-14 -98.5t-4 -83.5q0 -33 3.5 -78.5t12.5 -95t24 -98t38 -87t55 -62.5t74 -24q41 0 73.5 22.5t44.5 61.5h1v-298h204v165v186v197q0 101 1 198t1.5 186.5
t2.5 164.5zM321 274q0 -15 -2.5 -32.5t-9 -32.5t-18.5 -25.5t-31 -10.5q-23 0 -35.5 19t-18.5 45.5t-7 53.5t-1 42v148q0 11 0.5 36t2.5 56t5.5 64t11 60.5t18.5 45t27 17.5q21 0 33 -14t17.5 -34t6.5 -41.5t1 -36.5v-360z" />
    <glyph glyph-name="r" unicode="r" horiz-adv-x="455" 
d="M369 663v236q-40 0 -70 -12t-51 -32t-33 -45t-17 -51v138h-179l1 -897h205v490q0 24 4 55t15.5 58.5t32.5 47t54 19.5q21 0 38 -7z" />
    <glyph glyph-name="s" unicode="s" horiz-adv-x="649" 
d="M578 288q0 61 -16 102.5t-42 69t-59.5 44.5t-68.5 28.5t-68.5 21t-59.5 21.5t-42 30t-16 48q0 31 20 44.5t48 13.5q46 0 72 -24t39 -67l174 70q-27 101 -98.5 160.5t-177.5 59.5q-67 0 -119 -20t-88 -56.5t-54.5 -89t-18.5 -118.5q0 -74 26.5 -120t67 -75t87 -46l87 -33
t67 -36.5t26.5 -56.5q0 -16 -7.5 -28t-19.5 -20t-26.5 -12t-27.5 -4q-54 0 -84 29t-41 80l-195 -45q12 -66 39.5 -117t67.5 -85.5t91.5 -52t111.5 -17.5q67 0 123.5 21.5t96.5 61t62.5 95t22.5 123.5z" />
    <glyph glyph-name="t" unicode="t" horiz-adv-x="468" 
d="M371 0l16 188q-54 0 -89 32.5t-35 85.5v416h99v170h-101v254l-191 -83l-2 -171h-84v-170h75v-60v-110t-0.5 -133.5t-0.5 -129.5v-97v-38l8.5 -24t28 -53t52.5 -53t83 -24h141z" />
    <glyph glyph-name="u" unicode="u" horiz-adv-x="631" 
d="M577 0v896h-205v-611q0 -14 -1 -33t-6 -37t-15 -30.5t-29 -12.5q-18 0 -27 9t-13 22.5t-4 28.5v29v635h-205v-692q0 -40 5.5 -79.5t22 -70.5t46.5 -50.5t80 -19.5q25 0 49 5.5t44.5 19.5t37 38t26.5 62v-109h194z" />
    <glyph glyph-name="v" unicode="v" horiz-adv-x="648" 
d="M576 896h-173l-94 -504l-84 504h-207l191 -896h180z" />
    <glyph glyph-name="w" unicode="w" horiz-adv-x="831" 
d="M763 896h-181l-70 -470l-53 470h-148l-64 -472l-26 193.5l-21 149t-14.5 95.5l-5.5 34h-197l145 -896h170l75 367l4.5 -27.5l11 -68l14.5 -88l15 -88.5l12 -68l5 -27h166z" />
    <glyph glyph-name="x" unicode="x" horiz-adv-x="646" 
d="M576 -2l-202 455l173 443h-187l-90 -238l-61 238h-212l157 -445l-186 -453h209l93 263l80 -263h226z" />
    <glyph glyph-name="y" unicode="y" horiz-adv-x="659" 
d="M601 896h-199l-89 -457l-75 457h-224q12 -39 29.5 -106.5l36.5 -147.5l38 -164l34.5 -156t25.5 -123.5t10 -67.5q0 -21 -19.5 -30.5t-45.5 -13t-54 -3t-44 0.5v-185h123q103 0 167.5 42.5t88.5 142.5z" />
    <glyph glyph-name="z" unicode="z" horiz-adv-x="539" 
d="M450 -2v202h-227l219 490v206h-423v-206h196q-1 -1 -12 -27.5l-30.5 -72l-42.5 -98l-46 -106l-42 -97.5l-30.5 -71l-11.5 -27v-193h450z" />
    <glyph glyph-name="braceleft" unicode="{" horiz-adv-x="459" 
d="M11 450q19 0 38 2.5t34 10t24 21.5t9 38v208q0 28 10.5 57t29.5 52.5t45 38t57 14.5h108v-115h-40t-33.5 -5.5t-23 -18.5t-8.5 -38v-190q0 -36 -7.5 -59t-22.5 -37t-38.5 -21.5t-55.5 -12.5q66 -6 95.5 -38.5t29.5 -98.5q0 -23 -2 -44.5t-2 -44.5q0 -31 7.5 -46.5t21 -22
t33.5 -6.5h46v-115h-108q-30 0 -56 15t-45 38t-30 52t-11 57v141q0 21 -10.5 33.5t-26.5 18.5t-34 7t-34 0v109z" />
    <glyph glyph-name="bar" unicode="|" horiz-adv-x="338" 
d="M225 -2v899h-150v-899h150z" />
    <glyph glyph-name="braceright" unicode="}" horiz-adv-x="451" 
d="M367 425v109q-16 -1 -34.5 0t-34 7t-26 18.5t-10.5 33.5v141q0 28 -11 57t-30 52t-45 38t-56 15h-108v-115h45q21 0 34.5 -6.5t21 -22t7.5 -46.5q0 -22 -2 -44t-2 -45q0 -66 29 -98.5t96 -38.5q-32 -5 -55.5 -12.5t-38.5 -22t-22.5 -37t-7.5 -58.5v-190q0 -25 -9 -38
t-23.5 -18t-33.5 -5.5t-39 -0.5v-115h108q30 0 56 14.5t45 38t30 52t11 57.5v208q0 24 9 38t24 21.5t34 10t38 2.5z" />
    <glyph glyph-name="asciitilde" unicode="~" horiz-adv-x="662" 
d="M564 483h-135q0 -9 -0.5 -24.5t-3.5 -30.5t-10 -26t-20 -11q-23 0 -51 19.5l-58.5 42t-62 41.5t-59.5 19q-27 0 -46 -14.5t-32.5 -37.5t-21 -52.5t-12 -59t-5.5 -57t-1 -46.5h135v24q0 16 3 30.5t10 25.5t21 11q22 0 50.5 -18.5t59 -41t61.5 -41t59 -18.5q40 0 64 30.5
t36 73.5t15.5 87.5t3.5 73.5z" />
    <glyph glyph-name="quotesinglbase" unicode="&#x201a;" 
d="M166 11v197h-166v-209h68l-68 -175h77z" />
    <glyph glyph-name="florin" unicode="&#x192;" 
d="M585 901q-58 14 -113 14q-63 0 -104.5 -19t-67.5 -53.5t-39 -81.5t-18 -104h-78l-24 -163h77l-62 -441q-3 -23 -6.5 -44t-12 -36.5t-24.5 -25t-44 -9.5q-20 0 -45 5l-24 -155q51 -17 102 -17q64 0 106.5 18.5t70 51.5t42 79.5t22.5 102.5l67 471h98l23 163h-106
q2 18 5.5 34.5t11.5 29.5t21.5 21t34.5 8q17 0 33 -2.5t32 -4.5z" />
    <glyph glyph-name="quotedblbase" unicode="&#x201e;" 
d="M369 12v197h-168v-209h71l-71 -175h80zM166 12v197h-166v-209h68l-68 -175h77z" />
    <glyph glyph-name="ellipsis" unicode="&#x2026;" 
d="M857 0v210h-191v-210h191zM524 0v210h-191v-210h191zM191 0v210h-191v-210h191z" />
    <glyph glyph-name="dagger" unicode="&#x2020;" 
d="M533 492q-4 26 -9.5 52.5t-5.5 53.5q0 25 5.5 49t9.5 48l-216 -53l38 255q-20 -4 -39.5 -9.5t-39.5 -5.5t-39.5 5.5t-39.5 9.5l37 -255l-215 54q4 -24 9.5 -48t5.5 -49q0 -28 -5.5 -54.5t-9.5 -52.5l215 48q-9 -20 -21.5 -38t-26.5 -35l32 -233t16 -234h83
q4 118 16.5 234.5t30.5 233.5q-14 16 -25.5 34t-20.5 38z" />
    <glyph glyph-name="daggerdbl" unicode="&#x2021;" 
d="M518 276q-3 24 -8.5 52t-5.5 52q0 23 5.5 49t8.5 49l-213 -52l24 70l-24 77l213 -49q-3 25 -8.5 53t-5.5 52q0 23 5.5 49t8.5 49l-213 -52l32 221l-78 -15l-78 15l32 -221l-213 53q3 -23 8.5 -49t5.5 -49q0 -25 -5.5 -53t-8.5 -53l213 49l-23 -77l23 -70l-213 53
q3 -23 8.5 -49t5.5 -49q0 -25 -5.5 -53t-8.5 -52l213 49q-8 -20 -18.5 -38.5t-24.5 -34.5q15 -115 28.5 -231t18.5 -233h83q8 117 19.5 233t28.5 231q-14 17 -24.5 35t-18.5 38z" />
    <glyph glyph-name="circumflex" unicode="&#x2c6;" horiz-adv-x="658" 
d="M576 363l-204 557h-148l-201 -557h171l105 326l107 -326h170z" />
    <glyph glyph-name="perthousand" unicode="&#x2030;" 
d="M849 226q0 33 -5.5 74t-21 77t-43 60t-70.5 24t-70 -24.5t-42.5 -60t-21 -76.5t-5.5 -74t6 -72.5t22 -74t42.5 -58t68.5 -23.5t69 23.5t43 58t22 74t6 72.5zM279 663q0 33 -5.5 74t-21 76.5t-43 59.5t-70.5 24t-70 -24t-42.5 -60t-21 -76.5t-5.5 -73.5q0 -32 6 -72
t22 -75t42.5 -58.5t68.5 -23.5t69 23.5t43 58.5t22 74.5t6 72.5zM530 897h-93l-419 -899h95zM559 226q0 33 -5.5 74t-21 77t-43 60t-70.5 24t-68.5 -25t-39 -61t-17.5 -76.5t-4 -72.5t4.5 -71.5t18.5 -74t39 -58.5t67 -24t69 23.5t43 58t22 74t6 72.5zM746 254v-54
q0 -9 -0.5 -26.5t-4.5 -35t-11.5 -30t-20.5 -12.5q-12 0 -18.5 13t-9.5 30t-4 33.5t-1 24.5v60q0 9 0.5 26.5t4 35t10.5 31t20 13.5t20 -14t10.5 -32t4 -36t0.5 -27zM175 691v-54q0 -9 -0.5 -26.5t-4.5 -35t-11.5 -30t-20.5 -12.5q-12 0 -18.5 13t-9.5 30t-4 33.5t-1 24.5
v59q0 9 0.5 26.5t4 35.5t10.5 31.5t20 13.5t20 -14t10.5 -32t4 -36t0.5 -27zM456 254v-54q0 -9 -0.5 -26.5t-4.5 -35t-11.5 -30t-20.5 -12.5q-12 0 -18.5 13t-9.5 30t-4 33.5t-1 24.5v60q0 9 0.5 26.5t4 35t10.5 31t20 13.5t20 -14t10.5 -32t4 -36t0.5 -27z" />
    <glyph glyph-name="Scaron" unicode="&#x160;" horiz-adv-x="672" 
d="M599 288q0 65 -16 109t-42.5 73t-59.5 46.5t-67 29.5q-18 6 -49.5 14.5t-62 20.5t-53 29.5t-22.5 42.5q0 34 22 49.5t51 15.5q47 0 73.5 -25t40.5 -66l165 66q-27 98 -97 156t-173 58q-66 0 -119 -21t-89.5 -59t-56.5 -91.5t-20 -118.5q0 -56 18 -98.5t46.5 -73.5
t63 -51.5t67.5 -32.5q20 -8 50 -16t58 -20t48 -30t20 -45q0 -18 -8.5 -29.5t-21 -18.5t-28 -9.5t-28.5 -2.5q-55 0 -86 28.5t-43 79.5l-185 -43q12 -60 37 -109t63 -83.5t89 -53.5t114 -19q66 0 121.5 21.5t95.5 60.5t62 94t22 122zM524 1137h-124l-81 -76l-82 76h-123
l205 -213z" />
    <glyph glyph-name="guilsinglleft" unicode="&#x2039;" 
d="M158 140l-53 181l53 191h-71l-87 -191l87 -181h71z" />
    <glyph glyph-name="OE" unicode="&#x152;" horiz-adv-x="1009" 
d="M982 -2v215h-312v145h291v201h-291v131h252v207h-429q-27 0 -53.5 8.5t-54.5 8.5q-62 0 -110.5 -20.5t-85 -55.5t-61.5 -81.5t-41 -98.5t-23 -107t-7 -106q0 -50 7.5 -104t24 -105t42 -97t62 -80.5t84.5 -55t108 -20.5q28 0 55 7.5t54 7.5h488zM481 449v-42q0 -25 -2 -54
t-7.5 -58t-16 -52.5t-27.5 -38t-43 -14.5q-25 0 -42.5 14t-29 36.5t-18 50.5t-9.5 56.5t-3.5 54t-0.5 42.5t1 43t4 55t9.5 58.5t18 53t28.5 38.5t42 15q26 0 43.5 -14.5t28 -37.5t16 -51.5t7 -57.5t1.5 -55v-42z" />
    <glyph glyph-name="quoteleft" unicode="&#x2018;" 
d="M173 510v210h-69l69 178h-79l-94 -200v-188h173z" />
    <glyph glyph-name="quoteright" unicode="&#x2019;" 
d="M173 708v190h-173v-210h69l-69 -178h79z" />
    <glyph glyph-name="quotedblleft" unicode="&#x201c;" 
d="M375 510v210h-69l69 178h-79l-94 -200v-188h173zM173 510v210h-69l69 178h-79l-94 -200v-188h173z" />
    <glyph glyph-name="quotedblright" unicode="&#x201d;" 
d="M375 708v190h-173v-210h69l-69 -178h79zM173 708v190h-173v-210h69l-69 -178h79z" />
    <glyph glyph-name="bullet" unicode="&#x2022;" 
d="M384 484q0 38 -14.5 71.5t-39 58t-58 39t-70.5 14.5q-38 0 -71.5 -14.5t-58 -39t-39 -58t-14.5 -70.5q0 -38 14.5 -71.5t39 -58t57.5 -39t71 -14.5t71.5 14.5t58 39t39 57.5t14.5 71z" />
    <glyph glyph-name="endash" unicode="&#x2013;" 
d="M500 243v207h-500v-207h500z" />
    <glyph glyph-name="emdash" unicode="&#x2014;" 
d="M1000 243v207h-1000v-207h1000z" />
    <glyph glyph-name="tilde" unicode="&#x2dc;" horiz-adv-x="507" 
d="M433 941l-50 81q-7 -7 -15 -16t-17 -17t-19 -13.5t-21 -5.5q-14 0 -29 7t-31 16t-32.5 16t-34.5 7q-17 0 -33.5 -7.5t-31.5 -19t-29 -24.5l-26 -24l50 -84l30 32t39 17q16 0 31 -7t30 -15.5t31 -15.5t33 -7q19 0 37 7t33.5 18.5t29.5 25.5t25 29z" />
    <glyph glyph-name="trademark" unicode="&#x2122;" horiz-adv-x="956" 
d="M976 369v529h-159l-101 -313l-102 313h-158v-529h98v427h2l131 -427h58q0 1 7 23.5l19 61.5l26 84l28.5 91l26 83.5l19 60.5l7.5 23v-427h98zM401 796v102h-382v-102h137v-427h108v427h137z" />
    <glyph glyph-name="scaron" unicode="&#x161;" horiz-adv-x="649" 
d="M578 288q0 61 -16 102.5t-42 69t-59.5 44.5t-68.5 28.5t-68.5 21t-59.5 21.5t-42 30t-16 48q0 31 20 44.5t48 13.5q46 0 72 -24t39 -67l174 70q-27 101 -98.5 160.5t-177.5 59.5q-67 0 -119 -20t-88 -56.5t-54.5 -89t-18.5 -118.5q0 -74 26.5 -120t67 -75t87 -46l87 -33
t67 -36.5t26.5 -56.5q0 -16 -7.5 -28t-19.5 -20t-26.5 -12t-27.5 -4q-54 0 -84 29t-41 80l-195 -45q12 -66 39.5 -117t67.5 -85.5t91.5 -52t111.5 -17.5q67 0 123.5 21.5t96.5 61t62.5 95t22.5 123.5zM496 1145h-124l-81 -76l-82 76h-123l205 -213z" />
    <glyph glyph-name="guilsinglright" unicode="&#x203a;" 
d="M158 321l-87 191h-71l53 -191l-53 -181h71z" />
    <glyph glyph-name="oe" unicode="&#x153;" horiz-adv-x="986" 
d="M656 445q0 -50 -7.5 -103.5t-24 -105t-42 -97t-62 -80t-84.5 -54.5t-108 -20q-61 0 -108.5 20t-84 54.5t-62 80t-42 97t-24 105t-7.5 103.5q0 51 7 105.5t23 106.5t41 99t61.5 82t85 55.5t110.5 20.5t110.5 -20.5t85 -55.5t61.5 -82t41 -99t23 -106.5t7 -105.5zM439 444
q0 18 -1 46t-4.5 60t-10.5 64t-19 58t-30.5 42t-44.5 16t-44.5 -16t-30.5 -42t-19 -58t-10.5 -64t-4.5 -60t-1 -46t0.5 -45.5t4 -57.5t10 -60t19 -54t31 -39t45.5 -15t45.5 15t30.5 39t19 54t10.5 60t4 57.5t0.5 45.5zM998 323q-8 -63 -20.5 -123.5t-40.5 -108.5t-76 -77.5
t-126 -29.5q-65 0 -112 21t-79 56.5t-51.5 82.5t-30 99t-14 106.5t-3.5 105.5q0 46 4.5 98t16.5 103t33 98t53 82.5t77 56.5t105 21q68 0 113.5 -24.5t75 -65t44.5 -92.5t22 -107t7.5 -108.5t0.5 -96.5h-342v-16q0 -11 1.5 -33.5t4.5 -50t8.5 -56.5t14 -53t20.5 -39t28 -15
q24 0 38 22t22.5 52t12 60l5.5 47zM797 558q0 16 -2.5 50t-10.5 68t-22 60t-37 26q-15 0 -25.5 -12.5t-18.5 -31.5t-13 -43t-8.5 -46.5t-4.5 -41.5t-1 -29h143z" />
    <glyph glyph-name="Ydieresis" unicode="&#x178;" 
d="M650 897l-214 -519v-378h-205v378l-231 519h219l126 -313l121 313h184zM601 950h-198v178h198v-178zM301 950h-198v178h198v-178z" />
    <glyph glyph-name="exclamdown" unicode="&#xa1;" 
d="M215 687v210h-191v-210h191zM238 -4l-54 626h-127l-57 -626h238z" />
    <glyph glyph-name="cent" unicode="&#xa2;" 
d="M499 393l-161 20q-2 -14 -5.5 -30.5t-11 -30t-19 -22.5t-29.5 -9q-24 0 -37 18t-19.5 43t-8 51t-1.5 42t1 44t7.5 55t19.5 47t37 20q16 0 27.5 -11t18.5 -26.5t10 -32.5t3 -30l168 18q-4 41 -17 81t-35.5 73.5t-55.5 57t-77 31.5v94h-96v-94q-56 -15 -94 -49.5
t-61.5 -80.5t-33.5 -99t-10 -105q0 -51 11 -101.5t34.5 -94t61.5 -75.5t92 -45v-152h96v153q43 8 75.5 31.5t55.5 56.5t36 72.5t18 79.5z" />
    <glyph glyph-name="sterling" unicode="&#xa3;" 
d="M601 256l-161 40q-5 -49 -27 -79.5t-76 -30.5h-73q37 38 56 85.5t17 100.5l-1 22h121v155h-136q-5 26 -8 52.5t-3 52.5q0 13 3 26.5t10 24.5t17.5 18t25.5 7q14 0 24 -7t17 -17.5t12 -23.5t8 -24l152 67q-9 40 -28.5 74.5t-48 59t-65 38.5t-79.5 14q-50 0 -95.5 -20
t-80.5 -54t-55.5 -79t-20.5 -95q0 -29 3 -57t5 -57h-74v-155h96q3 -23 5.5 -45t2.5 -45q0 -68 -30.5 -93.5t-94.5 -25.5v-186h334q58 0 101 20.5t72.5 56t47.5 82t27 98.5z" />
    <glyph glyph-name="currency" unicode="&#xa4;" horiz-adv-x="695" 
d="M3 398v-62h76q9 -65 29.5 -128t57.5 -112.5t91.5 -80t129.5 -30.5q70 0 122.5 22.5t87.5 61.5t53.5 92t22.5 115l-192 15q-1 -21 -5 -39t-14.5 -31t-28.5 -20.5t-45 -7.5q-25 0 -42 12.5t-28 33t-16.5 46t-8.5 51.5h361v62h-365v30v48h365v62h-361q3 30 8.5 60.5t16.5 55
t27.5 39.5t40.5 15q30 0 48 -11t27.5 -28t12.5 -39t3 -44l196 14q-4 66 -21 123t-50.5 99.5t-87 66.5t-130.5 24q-78 0 -132.5 -33.5t-90.5 -86.5t-55.5 -120.5t-26.5 -134.5h-76v-62h71q-1 -11 -1 -21v-19v-19q0 -9 1 -19h-71z" />
    <glyph glyph-name="yen" unicode="&#xa5;" 
d="M581 899h-150l-115 -322l-120 322h-196l120 -297h-77v-134h131l26 -63h-157v-135h167v-270h177v270h164v135h-155l23 63h132v134h-81z" />
    <glyph glyph-name="brokenbar" unicode="&#xa6;" horiz-adv-x="333" 
d="M225 539v358h-150v-358h150zM225 -2v358h-150v-358h150z" />
    <glyph glyph-name="section" unicode="&#xa7;" 
d="M517 50q0 48 -17.5 95t-55.5 77q27 39 42 81.5t15 90.5q0 64 -22 107t-55 71.5t-71 47l-71 35t-55 34.5t-22 46q0 13 6.5 22t16 15t21.5 9t23 3q35 0 61 -20.5t37 -53.5l124 45q-27 76 -80 118.5t-136 42.5q-50 0 -93.5 -14t-75 -42t-49.5 -68.5t-18 -93.5q0 -41 10 -79
t39 -69q-15 -23 -26 -44.5t-18.5 -43.5t-11.5 -46t-4 -52q0 -68 24.5 -112.5t60.5 -74.5t79 -50l79 -37.5t60.5 -37.5t24.5 -50q0 -32 -24.5 -49t-53.5 -17q-42 0 -71 23.5t-43 62.5l-148 -32q30 -92 90 -144.5t160 -52.5q57 0 103 18.5t78.5 52.5t49.5 81.5t17 104.5z
M358 350q0 -18 -9 -32t-21 -26l-42 19t-49 25.5t-41 32.5t-17 41q0 18 8 35.5t20 30.5q17 -10 43 -22t50 -27.5t41 -34.5t17 -42z" />
    <glyph glyph-name="dieresis" unicode="&#xa8;" 
d="M517 719v178h-198v-178h198zM217 719v178h-198v-178h198z" />
    <glyph glyph-name="copyright" unicode="&#xa9;" 
d="M727 559q0 73 -28 138t-76 113t-112.5 76t-137.5 28q-74 0 -138.5 -28t-112.5 -76t-75.5 -112.5t-27.5 -137.5q0 -74 27.5 -139t75.5 -113.5t112.5 -76.5t138.5 -28v-1q74 0 138.5 28t112.5 77t75.5 113.5t27.5 138.5zM623 560q0 -57 -17 -105t-49 -83t-78.5 -54.5
t-105.5 -19.5v-1q-60 0 -106.5 19.5t-78.5 54.5t-48.5 83t-16.5 106t17 106t49 82.5t78.5 54t105.5 19.5q58 0 104.5 -19.5t79 -54.5t49.5 -83t17 -105zM553 495h-80q-1 -16 -9 -28.5t-20 -21.5t-26.5 -13.5t-29.5 -4.5q-27 0 -47 13t-33.5 33t-20 44.5t-6.5 48.5t6 48
t18.5 42.5t32 30.5t47.5 12q31 0 56 -15.5t31 -47.5h81q-11 63 -57.5 98t-109.5 35q-46 0 -82 -15.5t-61 -43t-38 -65t-13 -81.5q0 -43 14 -80.5t40 -65t62 -43.5t80 -16q31 0 59 9.5t50 27t37 42.5t19 57z" />
    <glyph glyph-name="ordfeminine" unicode="&#xaa;" 
d="M353 504q-7 20 -8.5 40t-1.5 40v150q0 45 -6 79t-23 56.5t-48.5 33.5t-82.5 11q-33 0 -61.5 -7t-51 -22t-38.5 -39t-22 -58l118 -14q4 45 50 45q27 0 33.5 -13.5t6.5 -36.5v-3q-35 -2 -73.5 -8.5t-70.5 -22.5t-53 -44t-21 -73q0 -54 31 -88t85 -34q71 0 108 64
q0 -14 1.5 -28.5t3.5 -28.5zM353 346v107h-353v-107h353zM218 676q0 -13 -1 -28t-6 -27.5t-14.5 -21t-27.5 -8.5q-17 0 -25.5 9.5t-8.5 26.5t8 28.5t20 19t26.5 11.5t28.5 6v-16z" />
    <glyph glyph-name="guillemotleft" unicode="&#xab;" 
d="M318 140l-53 181l53 191h-71l-87 -191l87 -181h71zM158 140l-53 181l53 191h-71l-87 -191l87 -181h71z" />
    <glyph glyph-name="logicalnot" unicode="&#xac;" 
d="M538 281v387h-538v-156h388v-231h150z" />
    <glyph glyph-name="registered" unicode="&#xae;" 
d="M727 559q0 73 -28 138t-76 113t-112.5 76t-137.5 28q-74 0 -138.5 -28t-112.5 -76t-75.5 -112.5t-27.5 -137.5q0 -74 27.5 -139t75.5 -113.5t112.5 -76.5t138.5 -28v-1q74 0 138.5 28t112.5 77t75.5 113.5t27.5 138.5zM623 560q0 -57 -17 -105t-49 -83t-78.5 -54.5
t-105.5 -19.5v-1q-60 0 -106.5 19.5t-78.5 54.5t-48.5 83t-16.5 106t17 106t49 82.5t78.5 54t105.5 19.5q58 0 104.5 -19.5t79 -54.5t49.5 -83t17 -105zM560 635q0 37 -11 60t-30.5 35.5t-46.5 17t-60 4.5h-184v-375h80v152h63l85 -152h92l-92 152q51 5 77.5 29t26.5 77z
M486 645q0 -37 -21 -47.5t-52 -10.5h-105v106h101q13 0 26.5 -1t25 -6t18.5 -14.5t7 -26.5z" />
    <glyph glyph-name="macron" unicode="&#xaf;" horiz-adv-x="340" 
d="M389 930v96h-318v-96h318z" />
    <glyph glyph-name="degree" unicode="&#xb0;" 
d="M282 782v1q0 27 -10.5 51t-28 41.5t-41.5 28t-51 10.5t-51 -10.5t-42 -28t-28.5 -41.5t-10.5 -51t10.5 -51t28 -42t41.5 -28.5t51 -10.5t51 10.5t42 28t28.5 41.5t10.5 51zM196 782q0 -19 -13 -32t-31 -13t-31 13t-13 31q-1 19 12 32t31 13q19 0 32 -13t13 -31z" />
    <glyph glyph-name="plusminus" unicode="&#xb1;" 
d="M512 493v167h-181v237h-150v-237h-181v-167h181v-237h150v237h181zM512 -2v166h-512v-166h512z" />
    <glyph glyph-name="twosuperior" unicode="&#xb2;" horiz-adv-x="449" 
d="M352 520h-174q30 21 58.5 48l55.5 52q28 26 42.5 65t14.5 76q0 38 -11 70t-32.5 55.5t-52 36.5t-69.5 13q-41 0 -72.5 -15.5t-53.5 -42t-34.5 -61t-16.5 -71.5l112 -25q1 13 3.5 29t9 30t17 24t27.5 10q23 0 32.5 -18.5t9.5 -38.5q0 -33 -18.5 -59.5t-41.5 -47.5
l-151 -138v-124h327z" />
    <glyph glyph-name="threesuperior" unicode="&#xb3;" horiz-adv-x="461" 
d="M364 542q0 45 -18.5 77.5t-61.5 49.5q18 7 30.5 19.5t20.5 28.5t11.5 34t3.5 36q0 34 -12.5 61.5t-34.5 46.5t-51 29.5t-62 10.5q-36 0 -65.5 -11.5t-52 -32.5t-37.5 -49.5t-22 -62.5l108 -23q3 23 16.5 43t39.5 20q22 0 34.5 -15.5t12.5 -36.5q0 -22 -10.5 -32
t-26 -13.5t-33.5 -2.5t-33 1v-114h46q29 0 48 -9.5t19 -44.5q0 -25 -14.5 -40.5t-40.5 -15.5q-31 0 -46.5 23t-17.5 51l-118 -19q16 -78 62 -124.5t128 -46.5q38 0 70.5 10.5t56 30.5t37 50.5t13.5 70.5z" />
    <glyph glyph-name="acute" unicode="&#xb4;" 
d="M285 889l-34 129l-232 -129l26 -89z" />
    <glyph glyph-name="mu" unicode="&#xb5;" 
d="M498 222v676h-198v-392q0 -14 -2 -33t-8 -36t-17.5 -28.5t-30.5 -11.5q-18 0 -27 9t-13 22.5t-4 28.5v29v412h-198l1 -900h198l-1 210q21 0 39.5 15.5t33.5 36t25.5 41t14.5 30.5v-109h187z" />
    <glyph glyph-name="paragraph" unicode="&#xb6;" 
d="M517 -5q16 0 29 1t24.5 5t23 12t24.5 22h-3q-12 -8 -24.5 -11.5t-25.5 -5t-26 -2t-27 -1.5l2 678l64 34q-28 -1 -65 -1q-36 0 -73.5 2t-72 7t-59.5 14q24 3 43 4t34 1q16 0 29 0.5t25 2.5q24 4 49 20.5t65 57.5l-4 4q-15 -12 -27.5 -23t-31.5 -17q-27 -8 -54 -9
q-21 -2 -41.5 -1.5t-41 -0.5t-41 -4.5t-40.5 -11.5q-2 8 -2 12q0 16 18.5 30t48 26.5t65 22t69.5 17t61.5 12.5t41.5 7v2q-84 0 -166 -0.5t-166 -0.5q-46 0 -82 -29.5t-61 -73t-38 -92t-13 -87.5q0 -52 11 -100.5t35.5 -88t64 -66.5t96.5 -34v-323q-35 -1 -54 -17t-40 -50
q20 20 36 33t38 13q11 0 20 -0.5t17 -0.5q14 -2 23 1q11 2 21.5 11.5t31.5 32.5q-23 -15 -44.5 -19t-43.5 -4l9.5 67t15.5 103.5t21 118.5t25 111t26.5 82.5t27.5 32.5q13 0 26.5 -32t26 -81.5t23.5 -109.5l20.5 -116t15.5 -101.5t9 -66.5q-24 -3 -41 -21.5t-31 -41.5
q10 9 14.5 14t9.5 9q7 7 15 12q15 9 44 9zM270 873q11 0 18.5 -7.5t7.5 -18.5q0 -10 -7.5 -17.5t-18.5 -7.5t-18.5 7t-7.5 18t7.5 18.5t18.5 7.5zM273 828q11 0 11 10t-10 10t-10 -10q-2 -10 9 -10z" />
    <glyph glyph-name="periodcentered" unicode="&#xb7;" 
d="M191 286v201h-191v-201h191z" />
    <glyph glyph-name="periodcentered" unicode="&#x2219;" 
d="M191 286v201h-191v-201h191z" />
    <glyph glyph-name="cedilla" unicode="&#xb8;" horiz-adv-x="241" 
d="M276 -241q0 15 -3.5 32t-12 31.5t-21 24.5t-30.5 10q-5 0 -10.5 -1l-10.5 -2l15 65h-57l-30 -112q13 3 26.5 1.5t25 -7.5t19 -17t7.5 -26q0 -18 -11 -28t-28 -10q-20 0 -38 8.5t-34 19.5l-18 -54q24 -17 52 -30.5t59 -13.5q23 0 41.5 8.5t31.5 23.5t20 35t7 42z" />
    <glyph glyph-name="onesuperior" unicode="&#xb9;" horiz-adv-x="444" 
d="M351 388v120h-106v428h-97q-19 -37 -54.5 -58.5t-73.5 -30.5v-122q26 5 50.5 14.5t47.5 23.5v-255h-110v-120h343z" />
    <glyph glyph-name="ordmasculine" unicode="&#xba;" 
d="M364 727q0 41 -12 78.5t-35 66t-57 45.5t-78 17q-45 0 -79 -18t-57 -47.5t-34.5 -68t-11.5 -79.5q0 -39 12 -76t35.5 -65.5t56.5 -46t75 -17.5q45 0 80 17t58 46t35 67.5t12 80.5zM364 366v107h-364v-107h364zM225 727q0 -13 -0.5 -32.5t-4 -38t-13 -31.5t-27.5 -13
q-17 0 -25.5 13.5t-12.5 32.5t-4.5 38t-0.5 31t0.5 30.5t4.5 36t13.5 30.5t26.5 13t26 -13t12.5 -30.5t4 -36t0.5 -30.5z" />
    <glyph glyph-name="guillemotright" unicode="&#xbb;" 
d="M318 321l-87 191h-71l53 -191l-53 -181h71zM158 321l-87 191h-71l53 -191l-53 -181h71z" />
    <glyph glyph-name="onequarter" unicode="&#xbc;" horiz-adv-x="963" 
d="M890 234h-63v312h-137l-168 -312v-117h182v-119h123v119h44zM766 897h-106l-420 -899h109zM353 349v121h-106v427h-97q-19 -37 -54.5 -58.5t-73.5 -30.5v-122q29 5 52.5 15.5t45.5 23.5v-255h-110v-121h343zM704 234h-84l84 163v-163z" />
    <glyph glyph-name="onehalf" unicode="&#xbd;" horiz-adv-x="959" 
d="M890 130h-174l60 51.5t55 51.5t40.5 60t15.5 77q0 38 -11 70t-32 55.5t-52 37t-70 13.5q-41 0 -72.5 -15.5t-53.5 -42t-34.5 -61t-16.5 -71.5l112 -25q1 13 3.5 29t8.5 30t16.5 23.5t27.5 9.5q23 0 33 -17.5t10 -37.5q0 -34 -18 -60.5t-42 -48.5l-151 -138v-122h322z
M748 897h-106l-420 -898h109zM353 349v121h-106v427h-97q-19 -37 -54.5 -58.5t-73.5 -30.5v-122q29 5 50 14.5t48 24.5v-255h-110v-121h343z" />
    <glyph glyph-name="threequarters" unicode="&#xbe;" horiz-adv-x="962" 
d="M890 234h-63v312h-137l-168 -312v-117h182v-119h123v119h52zM752 897h-106l-420 -899h109zM377 504q0 44 -18.5 77.5t-61.5 49.5q18 7 30.5 19.5t20.5 28.5t11.5 34t3.5 36q0 34 -12.5 61.5t-34 47t-50.5 29.5t-63 10q-36 0 -65.5 -11.5t-52 -32.5t-37.5 -50t-22 -63
l108 -23q3 23 16.5 43t39.5 20q21 0 34 -15t13 -35q0 -27 -14 -37.5t-39 -10.5h-50v-113q16 0 36 1t37 -3t28.5 -15.5t11.5 -36.5q0 -26 -14.5 -41.5t-40.5 -15.5q-31 0 -46.5 23t-17.5 51l-118 -20q16 -76 62 -123.5t127 -47.5q39 0 71.5 10.5t56 31t37 51t13.5 70.5z
M704 234h-84l84 163v-163z" />
    <glyph glyph-name="questiondown" unicode="&#xbf;" 
d="M347 697v200h-191v-200h191zM525 303l-184 28q-1 -18 -3 -44t-9.5 -50t-22 -41t-39.5 -17q-16 0 -27 8t-17.5 20.5t-9.5 27t-3 27.5q0 28 5.5 48.5t16 38.5t24 35l30.5 37q21 25 32 52.5t16 56.5t6 59.5t1 61.5l-167 1q-1 -39 -14 -66.5t-32 -51.5t-41.5 -47t-41.5 -51.5
t-32 -66.5t-13 -91q0 -57 16.5 -108.5t48 -90t78.5 -61t108 -22.5q69 0 117 25.5t80.5 68t50.5 98t26 115.5z" />
    <glyph glyph-name="Agrave" unicode="&#xc0;" horiz-adv-x="742" 
d="M704 0l-215 897h-259l-213 -897h208l42 195h183l39 -195h215zM414 372h-112l56 260zM462 1021l-232 129l-34 -129l240 -89z" />
    <glyph glyph-name="Aacute" unicode="&#xc1;" horiz-adv-x="742" 
d="M704 0l-215 897h-259l-213 -897h208l42 195h183l39 -195h215zM414 372h-112l56 260zM509 1030l-34 129l-232 -129l26 -89z" />
    <glyph glyph-name="Acircumflex" unicode="&#xc2;" horiz-adv-x="742" 
d="M704 0l-215 897h-259l-213 -897h208l42 195h183l39 -195h215zM414 372h-112l56 260zM567 935l-205 213l-205 -213h123l82 77l81 -77h124z" />
    <glyph glyph-name="Atilde" unicode="&#xc3;" horiz-adv-x="742" 
d="M704 0l-215 897h-259l-213 -897h208l42 195h183l39 -195h215zM414 372h-112l56 260zM629 1186h-135q0 -9 -0.5 -24.5t-3.5 -30.5t-10 -26t-20 -11q-23 0 -51 19.5l-58.5 42t-62 41.5t-59.5 19q-27 0 -46 -14.5t-32.5 -37.5t-21 -52.5t-12 -59t-5.5 -57t-1 -46.5h135v24
q0 16 3 30.5t10 25.5t21 11q22 0 50.5 -18.5t59 -41t61.5 -41t59 -18.5q40 0 64 30.5t36 73.5t15.5 87.5t3.5 73.5z" />
    <glyph glyph-name="Adieresis" unicode="&#xc4;" horiz-adv-x="742" 
d="M704 0l-215 897h-259l-213 -897h208l42 195h183l39 -195h215zM414 372h-112l56 260zM621 924v178h-198v-178h198zM321 924v178h-198v-178h198z" />
    <glyph glyph-name="Aring" unicode="&#xc5;" horiz-adv-x="742" 
d="M704 0l-215 897h-259l-213 -897h208l42 195h183l39 -195h215zM414 372h-112l56 260zM501 1024q0 22 -8.5 45t-25.5 42.5t-42.5 32t-58.5 12.5q-34 0 -59.5 -12.5t-42.5 -32t-25.5 -42.5t-8.5 -45q0 -21 8.5 -44.5t26 -42.5t43 -31.5t58.5 -12.5t58 12.5t42.5 31.5
t26 42.5t8.5 44.5zM412 1025q0 -15 -11 -31t-35 -16q-23 0 -35 15t-12 30t11 31.5t36 16.5q23 0 34.5 -15.5t11.5 -30.5z" />
    <glyph glyph-name="AE" unicode="&#xc6;" horiz-adv-x="1011" 
d="M944 0v215h-313v145h278v201h-278v131h246v207h-554l-306 -899h178l64 186h164v-186h521zM423 374h-108l106 318h2v-318z" />
    <glyph glyph-name="Ccedilla" unicode="&#xc7;" horiz-adv-x="663" 
d="M593 326l-192 15q-1 -21 -5 -47t-14.5 -48.5t-28.5 -37.5t-45 -15q-37 0 -57 27t-29.5 65t-11 77.5t-1.5 65.5q0 17 0.5 44t3 58t8 63t16.5 57.5t27.5 41.5t41.5 16q30 0 48 -18.5t27.5 -45.5t12.5 -56.5t3 -51.5l196 14q-4 66 -21 131t-50.5 116.5t-87 83.5t-130.5 32
q-62 0 -109 -21.5t-81.5 -58t-58 -84.5t-37 -101t-19.5 -108t-6 -104q0 -74 15.5 -154t51.5 -146t96.5 -108.5t150.5 -42.5q70 0 122.5 30t87.5 78.5t53.5 109.5t22.5 123zM412 -163q0 15 -3.5 32t-12 31.5t-21 24.5t-30.5 10q-5 0 -10.5 -1l-10.5 -2l15 65h-57l-30 -112
q13 3 26.5 1.5t25 -7.5t19 -17t7.5 -26q0 -18 -11 -28t-28 -10q-20 0 -38 8.5t-34 19.5l-18 -54q24 -17 52 -30.5t59 -13.5q23 0 41.5 8.5t31.5 23.5t20 35t7 42z" />
    <glyph glyph-name="Egrave" unicode="&#xc8;" 
d="M531 0v213h-306v155h290v181h-290v141h249v207h-455v-897h512zM352 1036l-232 129l-34 -129l240 -89z" />
    <glyph glyph-name="Eacute" unicode="&#xc9;" 
d="M531 0v213h-306v155h290v181h-290v141h249v207h-455v-897h512zM358 1017l-34 129l-232 -129l26 -89z" />
    <glyph glyph-name="Ecircumflex" unicode="&#xca;" 
d="M531 0v213h-306v155h290v181h-290v141h249v207h-455v-897h512zM472 942l-205 213l-205 -213h123l82 77l81 -77h124z" />
    <glyph glyph-name="Edieresis" unicode="&#xcb;" 
d="M546 0h-512v897h455v-207h-249v-131h290v-201h-290v-145h306v-213zM517 942h-198v178h198v-178zM217 942h-198v178h198v-178z" />
    <glyph glyph-name="Igrave" unicode="&#xcc;" horiz-adv-x="364" 
d="M333 0h-206v897h206v-897zM325 1039l-26 -89l-240 89l34 129z" />
    <glyph glyph-name="Iacute" unicode="&#xcd;" horiz-adv-x="364" 
d="M348 0h-206v897h206v-897zM325 1039l-240 -89l-26 89l232 129z" />
    <glyph glyph-name="Icircumflex" unicode="&#xce;" horiz-adv-x="402" 
d="M288 0h-206v897h206v-897zM389 931h-124l-81 77l-82 -77h-123l205 213z" />
    <glyph glyph-name="Idieresis" unicode="&#xcf;" horiz-adv-x="466" 
d="M286 0h-206v897h206v-897zM438 942h-198v178h198v-178zM138 942h-198v178h198v-178z" />
    <glyph glyph-name="Eth" unicode="&#xd0;" horiz-adv-x="745" 
d="M663 446q0 87 -19.5 168.5t-62.5 144t-111 100.5t-165 38h-252v-332h-73v-217h73v-349h267q92 0 157 40t106.5 104t60.5 143.5t19 159.5zM443 451q0 -49 -6 -94t-24.5 -78.5t-54 -53.5t-94.5 -20v143h80v217h-80v128q61 0 96.5 -18.5t54 -51.5t23.5 -77t5 -95z" />
    <glyph glyph-name="Ntilde" unicode="&#xd1;" 
d="M606 0h-203l-13.5 32l-33.5 80l-43 104.5l-43 104.5l-33 80l-13 32v-433h-205v896h205l176 -414v414h206v-896zM597 1207q0 -29 -3.5 -74t-15.5 -88t-35.5 -73.5t-63.5 -30.5q-28 0 -59 18.5t-61.5 41t-59 41.5t-50.5 19q-14 0 -21 -11t-10 -26t-3.5 -30.5t-0.5 -24.5
h-134q0 19 1 46.5t5.5 57.5t12 59t21 52t32.5 37.5t46 14.5q28 0 59.5 -19t62 -41.5l58.5 -41.5t50 -19q14 0 21 11t10 26t3.5 30.5t0.5 24.5h134z" />
    <glyph glyph-name="Ograve" unicode="&#xd2;" horiz-adv-x="734" 
d="M713 445q0 51 -7 105.5t-23 106.5t-41 98.5t-61.5 81.5t-85 55.5t-110.5 20.5t-110.5 -20.5t-85 -55.5t-61.5 -81.5t-41 -98.5t-23 -106.5t-7 -105.5q0 -50 7.5 -103.5t24 -105t42 -97t62 -80t84.5 -54.5t108 -20t108 20t84.5 54.5t62 80t42 97t24 105t7.5 103.5z
M488 444q0 -17 -0.5 -42.5t-3.5 -54t-9.5 -56.5t-18 -50.5t-29 -36.5t-42.5 -14t-42.5 14t-29 36.5t-18 50.5t-9.5 56.5t-3.5 54t-0.5 42.5t1 43t4 55.5t9.5 59.5t18 54t28.5 39t42 15q24 0 41.5 -15t29 -39t18 -54t9.5 -59.5t4 -55.5t1 -43zM438 1038l-232 129l-34 -129
l240 -89z" />
    <glyph glyph-name="Oacute" unicode="&#xd3;" horiz-adv-x="734" 
d="M713 445q0 51 -7 105.5t-23 106.5t-41 98.5t-61.5 81.5t-85 55.5t-110.5 20.5t-110.5 -20.5t-85 -55.5t-61.5 -81.5t-41 -98.5t-23 -106.5t-7 -105.5q0 -50 7.5 -103.5t24 -105t42 -97t62 -80t84.5 -54.5t108 -20t108 20t84.5 54.5t62 80t42 97t24 105t7.5 103.5z
M488 444q0 -17 -0.5 -42.5t-3.5 -54t-9.5 -56.5t-18 -50.5t-29 -36.5t-42.5 -14t-42.5 14t-29 36.5t-18 50.5t-9.5 56.5t-3.5 54t-0.5 42.5t1 43t4 55.5t9.5 59.5t18 54t28.5 39t42 15q24 0 41.5 -15t29 -39t18 -54t9.5 -59.5t4 -55.5t1 -43zM539 1034l-34 129l-232 -129
l26 -89z" />
    <glyph glyph-name="Ocircumflex" unicode="&#xd4;" horiz-adv-x="734" 
d="M700 445q0 -50 -7.5 -103.5t-24 -105t-42 -97t-62 -80t-84.5 -54.5t-108 -20q-61 0 -108.5 20t-84 54.5t-62 80t-42 97t-24 105t-7.5 103.5q0 51 7 105.5t23 106.5t41 98.5t61.5 81.5t85 55.5t110.5 20.5t110.5 -20.5t85 -55.5t61.5 -81.5t41 -98.5t23 -106.5t7 -105.5z
M475 444q0 17 -1 43t-4 55.5t-9.5 59.5t-18 54t-29 39t-41.5 15q-25 0 -42 -15t-28.5 -39t-18 -54t-9.5 -59.5t-4 -55.5t-1 -43t0.5 -42.5t3.5 -54t9.5 -56.5t18 -50.5t29 -36.5t42.5 -14t42.5 14t29 36.5t18 50.5t9.5 56.5t3.5 54t0.5 42.5zM588 937h-124l-81 77l-82 -77
h-123l205 213z" />
    <glyph glyph-name="Otilde" unicode="&#xd5;" horiz-adv-x="734" 
d="M713 445q0 51 -7 105.5t-23 106.5t-41 98.5t-61.5 81.5t-85 55.5t-110.5 20.5t-110.5 -20.5t-85 -55.5t-61.5 -81.5t-41 -98.5t-23 -106.5t-7 -105.5q0 -50 7.5 -103.5t24 -105t42 -97t62 -80t84.5 -54.5t108 -20t108 20t84.5 54.5t62 80t42 97t24 105t7.5 103.5z
M488 444q0 -17 -0.5 -42.5t-3.5 -54t-9.5 -56.5t-18 -50.5t-29 -36.5t-42.5 -14t-42.5 14t-29 36.5t-18 50.5t-9.5 56.5t-3.5 54t-0.5 42.5t1 43t4 55.5t9.5 59.5t18 54t28.5 39t42 15q24 0 41.5 -15t29 -39t18 -54t9.5 -59.5t4 -55.5t1 -43zM671 1204h-135q0 -9 -0.5 -24.5
t-3.5 -30.5t-10 -26t-20 -11q-23 0 -51 19.5l-58.5 42t-62 41.5t-59.5 19q-27 0 -46 -14.5t-32.5 -37.5t-21 -52.5t-12 -59t-5.5 -57t-1 -46.5h135v24q0 16 3 30.5t10 25.5t21 11q22 0 50.5 -18.5t59 -41t61.5 -41t59 -18.5q40 0 64 30.5t36 73.5t15.5 87.5t3.5 73.5z" />
    <glyph glyph-name="Odieresis" unicode="&#xd6;" horiz-adv-x="734" 
d="M713 445q0 51 -7 105.5t-23 106.5t-41 98.5t-61.5 81.5t-85 55.5t-110.5 20.5t-110.5 -20.5t-85 -55.5t-61.5 -81.5t-41 -98.5t-23 -106.5t-7 -105.5q0 -50 7.5 -103.5t24 -105t42 -97t62 -80t84.5 -54.5t108 -20t108 20t84.5 54.5t62 80t42 97t24 105t7.5 103.5z
M488 444q0 -17 -0.5 -42.5t-3.5 -54t-9.5 -56.5t-18 -50.5t-29 -36.5t-42.5 -14t-42.5 14t-29 36.5t-18 50.5t-9.5 56.5t-3.5 54t-0.5 42.5t1 43t4 55.5t9.5 59.5t18 54t28.5 39t42 15q24 0 41.5 -15t29 -39t18 -54t9.5 -59.5t4 -55.5t1 -43zM585 946v178h-198v-178h198z
M285 946v178h-198v-178h198z" />
    <glyph glyph-name="multiply" unicode="&#xd7;" horiz-adv-x="641" 
d="M556 169l-150 196l150 196l-106 140l-150 -196l-150 196l-106 -140l150 -196l-150 -196l106 -138l150 196l150 -196z" />
    <glyph glyph-name="Oslash" unicode="&#xd8;" horiz-adv-x="734" 
d="M706 443q0 45 -5.5 93.5t-18 96t-32.5 91.5t-49 80l81 182h-106l-55 -114q-32 19 -67 29.5t-72 10.5q-91 0 -153 -44.5t-100.5 -113t-55 -150.5t-16.5 -157q0 -98 23.5 -189.5t83.5 -170.5l-78 -172h108l49 103q59 -37 128 -37q62 0 111.5 19.5t86.5 53.5t63 79.5
t42.5 96.5t24 106t7.5 107zM441 678l-155 -333l-4 72t-2 72q0 24 2.5 61.5t12.5 73t30 60.5t55 25q20 0 33.5 -8t27.5 -23zM482 394q0 -25 -2.5 -61t-12.5 -69t-30.5 -56t-55.5 -23q-16 0 -30 9t-25 20l150 330l4 -75t2 -75z" />
    <glyph glyph-name="Ugrave" unicode="&#xd9;" horiz-adv-x="682" 
d="M582 320v577h-205v-576v-41t-6 -40.5t-21.5 -30.5t-45.5 -12t-46 10.5t-23.5 27.5t-8.5 39t-1 45v578l-205 -1v-592q0 -72 15 -131t48.5 -100.5t88 -64.5t132.5 -23q81 0 134.5 25.5t85.5 70.5t45 106.5t13 132.5zM379 1023l-232 129l-34 -129l240 -89z" />
    <glyph glyph-name="Uacute" unicode="&#xda;" horiz-adv-x="682" 
d="M582 320v577h-205v-576v-41t-6 -40.5t-21.5 -30.5t-45.5 -12t-46 10.5t-23.5 27.5t-8.5 39t-1 45v578l-205 -1v-592q0 -72 15 -131t48.5 -100.5t88 -64.5t132.5 -23q81 0 134.5 25.5t85.5 70.5t45 106.5t13 132.5zM409 1023l-34 129l-232 -129l26 -89z" />
    <glyph glyph-name="Ucircumflex" unicode="&#xdb;" horiz-adv-x="682" 
d="M582 320v577h-205v-576v-41t-6 -40.5t-21.5 -30.5t-45.5 -12t-46 10.5t-23.5 27.5t-8.5 39t-1 45v578l-205 -1v-592q0 -72 15 -131t48.5 -100.5t88 -64.5t132.5 -23q81 0 134.5 25.5t85.5 70.5t45 106.5t13 132.5zM515 940l-205 213l-205 -213h123l82 77l81 -77h124z" />
    <glyph glyph-name="Udieresis" unicode="&#xdc;" 
d="M581 320q0 -71 -13 -132.5t-45 -106.5t-85.5 -70.5t-134.5 -25.5q-78 0 -132.5 23t-88 64.5t-48.5 100.5t-15 131v592l205 1v-578q0 -23 1 -45t8.5 -39t23.5 -27.5t46 -10.5t45 12t21.5 30.5t6.5 40.5v41v576h205v-577zM554 938h-198v178h198v-178zM254 938h-198v178h198
v-178z" />
    <glyph glyph-name="Yacute" unicode="&#xdd;" horiz-adv-x="716" 
d="M650 897h-184l-121 -313l-126 313h-219l231 -519v-378h205v378zM459 1020l-34 129l-232 -129l26 -89z" />
    <glyph glyph-name="Thorn" unicode="&#xde;" horiz-adv-x="700" 
d="M635 451q0 32 -6 65.5t-18.5 64.5t-31.5 58.5t-46 47.5q-28 21 -61 31.5t-68 14t-70.5 3t-68.5 -0.5v162h-213v-897h213v161h107q66 0 115.5 21.5t82.5 60.5t49 92t16 116zM426 443q0 -28 -7.5 -45.5t-21.5 -27t-33.5 -12.5t-43.5 -3h-55v174h61q47 0 73.5 -17t26.5 -69z
" />
    <glyph glyph-name="germandbls" unicode="&#xdf;" 
d="M643 322q2 41 -12.5 81.5t-37.5 78.5t-50.5 71.5l-51 61l-39.5 47t-16 28.5t20.5 24.5t45 41.5t45 63t20.5 89q0 49 -17 87t-46.5 63t-70 38t-87.5 13q-75 0 -129.5 -26.5t-89.5 -72t-52.5 -106.5t-18.5 -130h-37v-156h37v-618h189v793q0 22 1.5 49t9.5 50t25 39t48 16
q27 0 42.5 -19.5t15.5 -45.5q0 -31 -8.5 -48.5t-21.5 -29t-28 -21t-28 -25t-21.5 -40.5t-8.5 -67q0 -36 16.5 -66t40.5 -56.5t51.5 -52t49 -53t33 -59t4.5 -70.5q-5 -24 -11.5 -50t-15 -47.5t-19.5 -36t-24 -14.5q-16 0 -35 5.5t-33 11.5l-44 -161q29 -13 60.5 -16.5
t63.5 -3.5q54 0 96.5 30.5t72 79t46.5 109.5t20 121z" />
    <glyph glyph-name="agrave" unicode="&#xe0;" 
d="M562 -1h-191q-5 32 -5.5 64.5t-0.5 64.5q-8 -28 -23.5 -54t-37.5 -45.5t-49 -31.5t-58 -12q-56 0 -91 27t-54.5 68.5t-26 91t-6.5 93.5q0 83 24.5 138.5t68.5 89.5t106 50t136 22q0 9 -0.5 27t-3 39.5t-6.5 44.5t-10.5 41.5t-16.5 30.5t-23 12q-17 0 -30.5 -23
t-23.5 -53.5t-16.5 -60.5t-7.5 -43l-182 22q10 57 27 113.5t47 101.5t76 72.5t116 27.5q68 0 113 -16t72 -44t40 -66.5t17.5 -84t4 -95t-0.5 -100.5v-262v-58t1.5 -69.5t5 -68t9.5 -54.5zM354 444q-59 -8 -97 -42.5t-38 -97.5q0 -13 3.5 -29.5t11 -30.5t19.5 -24t28 -10
q27 0 41.5 21.5t21.5 51t8.5 60.5t1.5 49v52zM440 1024l-26 -89l-240 89l34 129z" />
    <glyph glyph-name="aacute" unicode="&#xe1;" 
d="M562 -1h-191q-5 32 -5.5 64.5t-0.5 64.5q-8 -28 -23.5 -54t-37.5 -45.5t-49 -31.5t-58 -12q-56 0 -91 27t-54.5 68.5t-26 91t-6.5 93.5q0 83 24.5 138.5t68.5 89.5t106 50t136 22q0 9 -0.5 27t-3 39.5t-6.5 44.5t-10.5 41.5t-16.5 30.5t-23 12q-17 0 -30.5 -23
t-23.5 -53.5t-16.5 -60.5t-7.5 -43l-182 22q10 57 27 113.5t47 101.5t76 72.5t116 27.5q68 0 113 -16t72 -44t40 -66.5t17.5 -84t4 -95t-0.5 -100.5v-262v-58t1.5 -69.5t5 -68t9.5 -54.5zM354 444q-59 -8 -97 -42.5t-38 -97.5q0 -13 3.5 -29.5t11 -30.5t19.5 -24t28 -10
q27 0 41.5 21.5t21.5 51t8.5 60.5t1.5 49v52zM424 1019l-240 -89l-26 89l232 129z" />
    <glyph glyph-name="acircumflex" unicode="&#xe2;" 
d="M562 -1h-191q-5 32 -5.5 64.5t-0.5 64.5q-8 -28 -23.5 -54t-37.5 -45.5t-49 -31.5t-58 -12q-56 0 -91 27t-54.5 68.5t-26 91t-6.5 93.5q0 83 24.5 138.5t68.5 89.5t106 50t136 22q0 9 -0.5 27t-3 39.5t-6.5 44.5t-10.5 41.5t-16.5 30.5t-23 12q-17 0 -30.5 -23
t-23.5 -53.5t-16.5 -60.5t-7.5 -43l-182 22q10 57 27 113.5t47 101.5t76 72.5t116 27.5q68 0 113 -16t72 -44t40 -66.5t17.5 -84t4 -95t-0.5 -100.5v-262v-58t1.5 -69.5t5 -68t9.5 -54.5zM354 444q-59 -8 -97 -42.5t-38 -97.5q0 -13 3.5 -29.5t11 -30.5t19.5 -24t28 -10
q27 0 41.5 21.5t21.5 51t8.5 60.5t1.5 49v52zM534 941h-124l-81 77l-82 -77h-123l205 213z" />
    <glyph glyph-name="atilde" unicode="&#xe3;" 
d="M562 -1h-191q-5 32 -5.5 64.5t-0.5 64.5q-8 -28 -23.5 -54t-37.5 -45.5t-49 -31.5t-58 -12q-56 0 -91 27t-54.5 68.5t-26 91t-6.5 93.5q0 83 24.5 138.5t68.5 89.5t106 50t136 22q0 9 -0.5 27t-3 39.5t-6.5 44.5t-10.5 41.5t-16.5 30.5t-23 12q-17 0 -30.5 -23
t-23.5 -53.5t-16.5 -60.5t-7.5 -43l-182 22q10 57 27 113.5t47 101.5t76 72.5t116 27.5q68 0 113 -16t72 -44t40 -66.5t17.5 -84t4 -95t-0.5 -100.5v-262v-58t1.5 -69.5t5 -68t9.5 -54.5zM354 444q-59 -8 -97 -42.5t-38 -97.5q0 -13 3.5 -29.5t11 -30.5t19.5 -24t28 -10
q27 0 41.5 21.5t21.5 51t8.5 60.5t1.5 49v52zM583 1200q0 -29 -3.5 -73.5t-15.5 -87.5t-35.5 -73.5t-63.5 -30.5q-28 0 -59 18.5t-61.5 41t-59 41t-51.5 18.5q-14 0 -21 -11t-10 -25.5t-3 -30.5v-24h-135q0 19 1.5 46.5t5.5 57t12 59t21 52.5t32.5 37.5t46.5 14.5
q28 0 59.5 -19t62 -41.5l58.5 -42t50 -19.5q14 0 21 11t10 26t3 30v25h135z" />
    <glyph glyph-name="adieresis" unicode="&#xe4;" 
d="M562 -1h-191q-5 32 -5.5 64.5t-0.5 64.5q-8 -28 -23.5 -54t-37.5 -45.5t-49 -31.5t-58 -12q-56 0 -91 27t-54.5 68.5t-26 91t-6.5 93.5q0 83 24.5 138.5t68.5 89.5t106 50t136 22q0 9 -0.5 27t-3 39.5t-6.5 44.5t-10.5 41.5t-16.5 30.5t-23 12q-17 0 -30.5 -23
t-23.5 -53.5t-16.5 -60.5t-7.5 -43l-182 22q10 57 27 113.5t47 101.5t76 72.5t116 27.5q68 0 113 -16t72 -44t40 -66.5t17.5 -84t4 -95t-0.5 -100.5v-262v-58t1.5 -69.5t5 -68t9.5 -54.5zM354 444q-59 -8 -97 -42.5t-38 -97.5q0 -13 3.5 -29.5t11 -30.5t19.5 -24t28 -10
q27 0 41.5 21.5t21.5 51t8.5 60.5t1.5 49v52zM568 953h-198v178h198v-178zM268 953h-198v178h198v-178z" />
    <glyph glyph-name="aring" unicode="&#xe5;" 
d="M562 -1h-191q-5 32 -5.5 64.5t-0.5 64.5q-8 -28 -23.5 -54t-37.5 -45.5t-49 -31.5t-58 -12q-56 0 -91 27t-54.5 68.5t-26 91t-6.5 93.5q0 83 24.5 138.5t68.5 89.5t106 50t136 22q0 9 -0.5 27t-3 39.5t-6.5 44.5t-10.5 41.5t-16.5 30.5t-23 12q-17 0 -30.5 -23
t-23.5 -53.5t-16.5 -60.5t-7.5 -43l-182 22q10 57 27 113.5t47 101.5t76 72.5t116 27.5q68 0 113 -16t72 -44t40 -66.5t17.5 -84t4 -95t-0.5 -100.5v-262v-58t1.5 -69.5t5 -68t9.5 -54.5zM354 444q-59 -8 -97 -42.5t-38 -97.5q0 -13 3.5 -29.5t11 -30.5t19.5 -24t28 -10
q27 0 41.5 21.5t21.5 51t8.5 60.5t1.5 49v52zM460 1042q0 -21 -8.5 -44.5t-26 -42.5t-42.5 -31.5t-58 -12.5t-58.5 12.5t-43 31.5t-26 42.5t-8.5 44.5q0 22 8.5 45t25.5 42.5t42.5 32t59.5 12.5t59 -12.5t42 -32t25.5 -42.5t8.5 -45zM372 1043q0 15 -12 30.5t-35 15.5
q-25 0 -36 -16.5t-11 -31.5t12 -30t35 -15q24 0 35.5 16t11.5 31z" />
    <glyph glyph-name="ae" unicode="&#xe6;" horiz-adv-x="896" 
d="M896 323l-188 15l-5.5 -47t-12 -60t-22.5 -52t-38 -22q-16 0 -28 15t-20.5 39t-14 53t-8.5 56.5t-4.5 50t-1.5 33.5v16h342q0 43 -0.5 96.5t-7 108.5t-22 107t-44.5 92.5t-75 65t-114 24.5q-50 0 -89 -14.5t-69 -40.5q-28 27 -72 42.5t-111 15.5q-70 0 -116 -27.5
t-76 -72.5t-47 -101.5t-27 -113.5l182 -22q1 13 7.5 43t16.5 60.5t23.5 53.5t30.5 23q13 0 23 -12t16.5 -30.5t10.5 -41.5t6.5 -44.5t3 -39.5t0.5 -27q-74 -6 -136 -22t-106 -50t-68.5 -89.5t-24.5 -138.5q0 -44 6.5 -93.5t26 -91t54.5 -68.5t91 -27q31 0 62 11t58 32
t48.5 51.5t33.5 70.5q20 -50 48 -82.5t60.5 -51t67 -25.5t67.5 -7q78 0 126 29.5t76 77.5t40.5 108.5t20.5 123.5zM695 558h-143q0 10 1 29t4.5 41.5t8.5 46.5t13 43t18.5 31.5t25.5 12.5q23 0 37 -26t22 -60t10.5 -68t2.5 -50zM345 379q0 -48 -7.5 -82.5t-20 -56.5
t-29.5 -32.5t-35 -10.5q-27 0 -43.5 23.5t-16.5 66.5q0 31 12.5 58t33.5 47.5t48 33.5t56 18q0 -16 1 -32t1 -33z" />
    <glyph glyph-name="ccedilla" unicode="&#xe7;" 
d="M619 326q-4 -62 -22.5 -123.5t-53.5 -110t-87.5 -79t-122.5 -30.5q-60 0 -106.5 20t-81.5 53.5t-59 78.5t-39 95.5t-21.5 103.5t-6.5 102t6 104t19.5 108t37 101t58 85t81.5 58.5t109 21.5q77 0 130.5 -31.5t87 -82.5t50.5 -115.5t21 -130.5l-196 -14q0 21 -3 50.5
t-12.5 56.5t-27.5 46t-48 19q-24 0 -40.5 -16t-27.5 -41t-17 -56.5t-8.5 -62t-3 -57.5t-0.5 -43q0 -26 1.5 -67t10.5 -81t29 -68.5t58 -28.5q27 0 45 18t28.5 44t14.5 54.5t5 48.5zM414 -158q0 -22 -7 -42t-20 -35t-31.5 -23.5t-41.5 -8.5q-31 0 -59 13.5t-52 30.5l18 54
q16 -11 34 -19.5t38 -8.5q17 0 28 10t11 28q0 15 -7.5 26t-19 17t-25 7.5t-26.5 -1.5l30 112h57l-15 -65l10.5 2t10.5 1q18 0 30.5 -10t21 -24.5t12 -31.5t3.5 -32z" />
    <glyph glyph-name="egrave" unicode="&#xe8;" 
d="M572 323q-8 -63 -20.5 -123.5t-40.5 -108.5t-76 -77.5t-126 -29.5q-65 0 -112 21t-79 56.5t-51.5 82.5t-30 99t-14 106.5t-3.5 105.5q0 46 4.5 98t16.5 103t33 98t53 82.5t77 56.5t105 21q68 0 113.5 -24.5t75 -65t44.5 -92.5t22 -107t7.5 -108.5t0.5 -96.5h-342v-16
q0 -11 1.5 -33.5t4.5 -50t8.5 -56.5t14 -53t20.5 -39t28 -15q24 0 38 22t22.5 52t12 60l5.5 47zM371 558q0 16 -2.5 50t-10.5 68t-22 60t-37 26q-15 0 -25.5 -12.5t-18.5 -31.5t-13 -43t-8.5 -46.5t-4.5 -41.5t-1 -29h143zM424 1023l-26 -89l-240 89l34 129z" />
    <glyph glyph-name="eacute" unicode="&#xe9;" 
d="M572 323q-8 -63 -20.5 -123.5t-40.5 -108.5t-76 -77.5t-126 -29.5q-65 0 -112 21t-79 56.5t-51.5 82.5t-30 99t-14 106.5t-3.5 105.5q0 46 4.5 98t16.5 103t33 98t53 82.5t77 56.5t105 21q68 0 113.5 -24.5t75 -65t44.5 -92.5t22 -107t7.5 -108.5t0.5 -96.5h-342v-16
q0 -11 1.5 -33.5t4.5 -50t8.5 -56.5t14 -53t20.5 -39t28 -15q24 0 38 22t22.5 52t12 60l5.5 47zM371 558q0 16 -2.5 50t-10.5 68t-22 60t-37 26q-15 0 -25.5 -12.5t-18.5 -31.5t-13 -43t-8.5 -46.5t-4.5 -41.5t-1 -29h143zM420 1024l-240 -89l-26 89l232 129z" />
    <glyph glyph-name="ecircumflex" unicode="&#xea;" 
d="M572 323q-8 -63 -20.5 -123.5t-40.5 -108.5t-76 -77.5t-126 -29.5q-65 0 -112 21t-79 56.5t-51.5 82.5t-30 99t-14 106.5t-3.5 105.5q0 46 4.5 98t16.5 103t33 98t53 82.5t77 56.5t105 21q68 0 113.5 -24.5t75 -65t44.5 -92.5t22 -107t7.5 -108.5t0.5 -96.5h-342v-16
q0 -11 1.5 -33.5t4.5 -50t8.5 -56.5t14 -53t20.5 -39t28 -15q24 0 38 22t22.5 52t12 60l5.5 47zM371 558q0 16 -2.5 50t-10.5 68t-22 60t-37 26q-15 0 -25.5 -12.5t-18.5 -31.5t-13 -43t-8.5 -46.5t-4.5 -41.5t-1 -29h143zM531 940h-124l-81 77l-82 -77h-123l205 213z" />
    <glyph glyph-name="edieresis" unicode="&#xeb;" 
d="M572 323q-8 -63 -20.5 -123.5t-40.5 -108.5t-76 -77.5t-126 -29.5q-65 0 -112 21t-79 56.5t-51.5 82.5t-30 99t-14 106.5t-3.5 105.5q0 46 4.5 98t16.5 103t33 98t53 82.5t77 56.5t105 21q68 0 113.5 -24.5t75 -65t44.5 -92.5t22 -107t7.5 -108.5t0.5 -96.5h-342v-16
q0 -11 1.5 -33.5t4.5 -50t8.5 -56.5t14 -53t20.5 -39t28 -15q24 0 38 22t22.5 52t12 60l5.5 47zM371 558q0 16 -2.5 50t-10.5 68t-22 60t-37 26q-15 0 -25.5 -12.5t-18.5 -31.5t-13 -43t-8.5 -46.5t-4.5 -41.5t-1 -29h143zM565 942h-198v178h198v-178zM265 942h-198v178h198
v-178z" />
    <glyph glyph-name="igrave" unicode="&#xec;" horiz-adv-x="328" 
d="M307 -2h-200v899h200v-899zM311 1023l-26 -89l-240 89l34 129z" />
    <glyph glyph-name="iacute" unicode="&#xed;" horiz-adv-x="328" 
d="M311 1032l-240 -89l-26 89l232 129zM324 -2h-200v899h200v-899z" />
    <glyph glyph-name="icircumflex" unicode="&#xee;" horiz-adv-x="328" 
d="M455 971h-124l-81 77l-82 -77h-123l205 213zM374 -2h-200v899h200v-899z" />
    <glyph glyph-name="idieresis" unicode="&#xef;" horiz-adv-x="328" 
d="M255 -2h-200v899h200v-899zM367 963h-180v161h180v-161zM94 963h-181v161h181v-161z" />
    <glyph glyph-name="eth" unicode="&#xf0;" horiz-adv-x="661" 
d="M575 336q0 54 -9 111.5t-27.5 112t-48.5 103t-72 83.5l-30 25t-32 23l76 32l-80 70l-96 -42q-27 14 -56 25t-52 16l-89 -39q21 -11 41 -23t38 -27l-114 -51l75 -71l109 46q14 -8 23.5 -23t14.5 -31q-59 -9 -102 -45.5t-70.5 -86.5t-40.5 -108t-13 -110q0 -61 17.5 -122
t52 -110t86.5 -79.5t120 -30.5q74 0 126.5 29.5t86.5 78t50 112t16 132.5zM366 346v-54t-6 -67t-20 -57.5t-42 -24.5q-27 0 -40.5 23t-19.5 54.5t-6 63.5v51t0.5 48.5t7 60t20.5 51t41 21.5q25 0 38.5 -20t19.5 -47.5t6.5 -56.5t0.5 -46z" />
    <glyph glyph-name="ntilde" unicode="&#xf1;" horiz-adv-x="631" 
d="M526 0v651q0 44 -5 90t-22.5 83.5t-51.5 61.5t-92 24q-45 0 -81 -28.5t-53 -78.5v94h-202v-897h206v603q0 18 -0.5 40t3.5 41t15.5 32t34.5 13q17 0 26 -10.5t13 -25.5t4.5 -31.5t0.5 -28.5v-633h204zM539 1240h-135q0 -9 -0.5 -24.5t-3.5 -30.5t-10 -26t-20 -11
q-23 0 -51 19.5l-58.5 42t-62 41.5t-59.5 19q-27 0 -46 -14.5t-32.5 -37.5t-21 -52.5t-12 -59t-5.5 -57t-1 -46.5h135v24q0 16 3 30.5t10 25.5t21 11q22 0 50.5 -18.5t59 -41t61.5 -41t59 -18.5q40 0 64 30.5t36 73.5t15.5 87.5t3.5 73.5z" />
    <glyph glyph-name="ograve" unicode="&#xf2;" 
d="M675 445q0 -50 -7.5 -103.5t-24 -105t-42 -97t-62 -80t-84 -54.5t-108.5 -20t-108.5 20t-84 54.5t-62 80t-42 97t-24 105t-7.5 103.5q0 51 7 105.5t23 106.5t41 99t61.5 82t85 55.5t110.5 20.5t110.5 -20.5t85 -55.5t61.5 -82t41 -99t23 -106.5t7 -105.5zM458 444
q0 18 -1 46t-4.5 60t-10.5 64t-19 58t-30.5 42t-44.5 16t-44.5 -16t-30.5 -42t-19 -58t-10.5 -64t-4.5 -60t-1 -46t0.5 -45.5t4 -57.5t10 -60t19 -54t31 -39t45.5 -15t45.5 15t30.5 39t19 54t10.5 60t4 57.5t0.5 45.5zM462 1034l-26 -89l-240 89l34 129z" />
    <glyph glyph-name="oacute" unicode="&#xf3;" 
d="M675 445q0 -50 -7.5 -103.5t-24 -105t-42 -97t-62 -80t-84 -54.5t-108.5 -20t-108.5 20t-84 54.5t-62 80t-42 97t-24 105t-7.5 103.5q0 51 7 105.5t23 106.5t41 99t61.5 82t85 55.5t110.5 20.5t110.5 -20.5t85 -55.5t61.5 -82t41 -99t23 -106.5t7 -105.5zM458 444
q0 18 -1 46t-4.5 60t-10.5 64t-19 58t-30.5 42t-44.5 16t-44.5 -16t-30.5 -42t-19 -58t-10.5 -64t-4.5 -60t-1 -46t0.5 -45.5t4 -57.5t10 -60t19 -54t31 -39t45.5 -15t45.5 15t30.5 39t19 54t10.5 60t4 57.5t0.5 45.5zM454 1030l-240 -89l-26 89l232 129z" />
    <glyph glyph-name="ocircumflex" unicode="&#xf4;" 
d="M675 445q0 -50 -7.5 -103.5t-24 -105t-42 -97t-62 -80t-84 -54.5t-108.5 -20t-108.5 20t-84 54.5t-62 80t-42 97t-24 105t-7.5 103.5q0 51 7 105.5t23 106.5t41 99t61.5 82t85 55.5t110.5 20.5t110.5 -20.5t85 -55.5t61.5 -82t41 -99t23 -106.5t7 -105.5zM458 444
q0 18 -1 46t-4.5 60t-10.5 64t-19 58t-30.5 42t-44.5 16t-44.5 -16t-30.5 -42t-19 -58t-10.5 -64t-4.5 -60t-1 -46t0.5 -45.5t4 -57.5t10 -60t19 -54t31 -39t45.5 -15t45.5 15t30.5 39t19 54t10.5 60t4 57.5t0.5 45.5zM559 948h-124l-81 77l-82 -77h-123l205 213z" />
    <glyph glyph-name="otilde" unicode="&#xf5;" 
d="M675 445q0 -50 -7.5 -103.5t-24 -105t-42 -97t-62 -80t-84 -54.5t-108.5 -20t-108.5 20t-84 54.5t-62 80t-42 97t-24 105t-7.5 103.5q0 51 7 105.5t23 106.5t41 99t61.5 82t85 55.5t110.5 20.5t110.5 -20.5t85 -55.5t61.5 -82t41 -99t23 -106.5t7 -105.5zM458 444
q0 18 -1 46t-4.5 60t-10.5 64t-19 58t-30.5 42t-44.5 16t-44.5 -16t-30.5 -42t-19 -58t-10.5 -64t-4.5 -60t-1 -46t0.5 -45.5t4 -57.5t10 -60t19 -54t31 -39t45.5 -15t45.5 15t30.5 39t19 54t10.5 60t4 57.5t0.5 45.5zM624 1189q0 -29 -3.5 -73.5t-15.5 -87.5t-36 -73.5
t-64 -30.5q-27 0 -58 18.5t-61.5 41t-59 41t-51.5 18.5q-14 0 -21 -11t-10 -25.5t-3 -30.5v-24h-135q0 19 1.5 46.5t5.5 57t12 59t21 52.5t32.5 37.5t46.5 14.5q28 0 59 -19t62 -41.5l59 -42t50 -19.5q14 0 21 11t10 26t3 30v25h135z" />
    <glyph glyph-name="odieresis" unicode="&#xf6;" 
d="M675 445q0 -50 -7.5 -103.5t-24 -105t-42 -97t-62 -80t-84 -54.5t-108.5 -20t-108.5 20t-84 54.5t-62 80t-42 97t-24 105t-7.5 103.5q0 51 7 105.5t23 106.5t41 99t61.5 82t85 55.5t110.5 20.5t110.5 -20.5t85 -55.5t61.5 -82t41 -99t23 -106.5t7 -105.5zM458 444
q0 18 -1 46t-4.5 60t-10.5 64t-19 58t-30.5 42t-44.5 16t-44.5 -16t-30.5 -42t-19 -58t-10.5 -64t-4.5 -60t-1 -46t0.5 -45.5t4 -57.5t10 -60t19 -54t31 -39t45.5 -15t45.5 15t30.5 39t19 54t10.5 60t4 57.5t0.5 45.5zM610 942h-198v178h198v-178zM310 942h-198v178h198
v-178z" />
    <glyph glyph-name="divide" unicode="&#xf7;" 
d="M334 510v157h-155v-157h155zM512 255v157h-512v-157h512zM334 0v156h-155v-156h155z" />
    <glyph glyph-name="oslash" unicode="&#xf8;" 
d="M649 443q0 45 -5.5 93.5t-18 96t-32.5 91.5t-49 80l81 182h-106l-55 -114q-32 19 -67 29.5t-72 10.5q-91 0 -153 -44.5t-100.5 -113t-55 -150.5t-16.5 -157q0 -98 23.5 -189.5t83.5 -170.5l-78 -172h108l49 103q59 -37 128 -37q62 0 111.5 19.5t86.5 53.5t63 79.5
t42.5 96.5t24 106t7.5 107zM384 678l-155 -333l-4 72t-2 72q0 24 2.5 61.5t12.5 73t30 60.5t55 25q20 0 33.5 -8t27.5 -23zM425 394q0 -25 -2.5 -61t-12.5 -69t-30.5 -56t-55.5 -23q-16 0 -30 9t-25 20l150 330l4 -75t2 -75z" />
    <glyph glyph-name="ugrave" unicode="&#xf9;" horiz-adv-x="631" 
d="M577 0v896h-205v-611q0 -14 -1 -33t-6 -37t-15 -30.5t-29 -12.5q-18 0 -27 9t-13 22.5t-4 28.5v29v635h-205v-692q0 -40 5.5 -79.5t22 -70.5t46.5 -50.5t80 -19.5q25 0 49 5.5t44.5 19.5t37 38t26.5 62v-109h194zM371 1016l-232 129l-34 -129l240 -89z" />
    <glyph glyph-name="uacute" unicode="&#xfa;" horiz-adv-x="631" 
d="M577 0v896h-205v-611q0 -14 -1 -33t-6 -37t-15 -30.5t-29 -12.5q-18 0 -27 9t-13 22.5t-4 28.5v29v635h-205v-692q0 -40 5.5 -79.5t22 -70.5t46.5 -50.5t80 -19.5q25 0 49 5.5t44.5 19.5t37 38t26.5 62v-109h194zM467 1021l-34 129l-232 -129l26 -89z" />
    <glyph glyph-name="ucircumflex" unicode="&#xfb;" horiz-adv-x="631" 
d="M584 0h-194v109q-10 -38 -26.5 -62t-37 -38t-44.5 -19.5t-49 -5.5q-50 0 -80 19.5t-46.5 50.5t-22 70.5t-5.5 79.5v692h205v-635v-29q0 -15 4 -28.5t13 -22.5t27 -9q19 0 29 12.5t15 30.5t6 37t1 33v611h205v-896zM482 955h-124l-81 77l-82 -77h-123l205 213z" />
    <glyph glyph-name="udieresis" unicode="&#xfc;" horiz-adv-x="667" 
d="M613 0h-194v109q-10 -38 -26.5 -62t-37 -38t-44.5 -19.5t-49 -5.5q-50 0 -80 19.5t-46.5 50.5t-22 70.5t-5.5 79.5v692h205v-635v-29q0 -15 4 -28.5t13 -22.5t27 -9q19 0 29 12.5t15 30.5t6 37t1 33v611h205v-896zM614 950h-198v178h198v-178zM314 950h-198v178h198v-178
z" />
    <glyph glyph-name="yacute" unicode="&#xfd;" horiz-adv-x="659" 
d="M601 896h-199l-89 -457l-75 457h-224q12 -39 29.5 -106.5l36.5 -147.5l38 -164l34.5 -156t25.5 -123.5t10 -67.5q0 -21 -19.5 -30.5t-45.5 -13t-54 -3t-44 0.5v-185h123q103 0 167.5 42.5t88.5 142.5zM428 1024l-34 129l-232 -129l26 -89z" />
    <glyph glyph-name="thorn" unicode="&#xfe;" horiz-adv-x="640" 
d="M566 325q0 45 -7.5 104t-28.5 112t-58.5 89.5t-97.5 36.5q-26 0 -46.5 -9t-36.5 -24.5t-28 -35.5t-22 -41v325h-198v-1108h198v282q20 -39 53.5 -62t78.5 -23q40 0 70.5 18t51.5 47t35 66.5t22 77t11 77.5t3 68zM360 312q0 -18 -0.5 -47.5t-6 -58t-19 -49.5t-38.5 -21
q-19 0 -30 11.5t-16 28.5t-6.5 35.5t-1.5 32.5v169q0 13 2.5 28.5t8.5 28.5t17 21.5t28 8.5q16 0 27 -11t18 -28t10.5 -38.5t5 -42.5t1.5 -39v-29z" />
    <glyph glyph-name="ydieresis" unicode="&#xff;" horiz-adv-x="659" 
d="M601 896h-199l-89 -457l-75 457h-224q12 -39 29.5 -106.5l36.5 -147.5l38 -164l34.5 -156t25.5 -123.5t10 -67.5q0 -21 -19.5 -30.5t-45.5 -13t-54 -3t-44 0.5v-185h123q103 0 167.5 42.5t88.5 142.5zM542 957v178h-198v-178h198zM242 957v178h-198v-178h198z" />
    <glyph glyph-name="minus" unicode="&#xe000;" horiz-adv-x="684" 
d="M576 267v197h-512v-197h512z" />
    <glyph glyph-name="lozenge" unicode="&#xe001;" horiz-adv-x="905" 
d="M558 633v-264h-72v235q0 4 0.5 12.5t-1 17t-5 14.5t-10.5 6q-11 0 -16 -5.5t-7.5 -13.5t-2.5 -17v-16v-233h-72v245v12t-2 14t-6 11.5t-11 4.5q-17 0 -21 -15t-4 -27v-245h-73v346h67v-54q13 32 28.5 46t31.5 14q19 0 33.5 -9.5t24.5 -38.5q12 26 24.5 37t32.5 11
q19 0 30.5 -7.5t18.5 -20t9.5 -28.5t2.5 -32z" />
    <glyph glyph-name="apple" unicode="&#xe002;" horiz-adv-x="721" 
d="M691 0l-222 558l180 339h-202l-170 -319v319h-205v-897h205v181l73 148l136 -329h205zM367 533v-202h-55v181v9q0 7 -0.5 13.5t-3.5 11t-9 4.5q-8 0 -12 -4.5t-5.5 -10.5t-1.5 -13v-12v-179h-56v188q0 8 -1.5 20t-13.5 12q-13 0 -16 -11t-3 -21v-188h-56v266h52v-42
q10 25 22 36t24 11q15 0 26 -8t19 -30q9 20 18.5 29t24.5 9q14 0 23 -6t14.5 -16t7.5 -22t2 -25z" />
    </font>
</defs>
</svg>
